%TF.GenerationSoftware,KiCad,Pcbnew,(6.0.1)*%
%TF.CreationDate,2022-03-15T18:00:41+02:00*%
%TF.ProjectId,YAWS,59415753-2e6b-4696-9361-645f70636258,rev?*%
%TF.SameCoordinates,Original*%
%TF.FileFunction,Legend,Top*%
%TF.FilePolarity,Positive*%
%FSLAX46Y46*%
G04 Gerber Fmt 4.6, Leading zero omitted, Abs format (unit mm)*
G04 Created by KiCad (PCBNEW (6.0.1)) date 2022-03-15 18:00:41*
%MOMM*%
%LPD*%
G01*
G04 APERTURE LIST*
%ADD10C,0.150000*%
%ADD11C,0.300000*%
%ADD12C,0.120000*%
%ADD13O,1.727200X2.032000*%
G04 APERTURE END LIST*
D10*
X128116414Y-78804677D02*
X152821989Y-78804677D01*
X152821989Y-78804677D02*
X152821989Y-104453414D01*
X152821989Y-104453414D02*
X128116414Y-104453414D01*
X128116414Y-104453414D02*
X128116414Y-78804677D01*
X154875276Y-77974537D02*
X174050383Y-77974537D01*
X174050383Y-77974537D02*
X174050383Y-96452090D01*
X174050383Y-96452090D02*
X154875276Y-96452090D01*
X154875276Y-96452090D02*
X154875276Y-77974537D01*
X155393925Y-120081446D02*
X175818319Y-120081446D01*
X175818319Y-120081446D02*
X175818319Y-97332797D01*
X175818319Y-97332797D02*
X155393925Y-97332797D01*
X155393925Y-97332797D02*
X155393925Y-120081446D01*
X130072432Y-122980161D02*
X130453384Y-122980161D01*
X130215289Y-122646827D02*
X130215289Y-123503970D01*
X130262908Y-123599208D01*
X130358146Y-123646827D01*
X130453384Y-123646827D01*
X131215289Y-123646827D02*
X131215289Y-123123018D01*
X131167670Y-123027780D01*
X131072432Y-122980161D01*
X130881956Y-122980161D01*
X130786718Y-123027780D01*
X131215289Y-123599208D02*
X131120051Y-123646827D01*
X130881956Y-123646827D01*
X130786718Y-123599208D01*
X130739099Y-123503970D01*
X130739099Y-123408732D01*
X130786718Y-123313494D01*
X130881956Y-123265875D01*
X131120051Y-123265875D01*
X131215289Y-123218256D01*
X131548622Y-122980161D02*
X131929575Y-122980161D01*
X131691480Y-122646827D02*
X131691480Y-123503970D01*
X131739099Y-123599208D01*
X131834337Y-123646827D01*
X131929575Y-123646827D01*
X132262908Y-123646827D02*
X132262908Y-122980161D01*
X132262908Y-122646827D02*
X132215289Y-122694447D01*
X132262908Y-122742066D01*
X132310527Y-122694447D01*
X132262908Y-122646827D01*
X132262908Y-122742066D01*
X132881956Y-123646827D02*
X132786718Y-123599208D01*
X132739099Y-123551589D01*
X132691480Y-123456351D01*
X132691480Y-123170637D01*
X132739099Y-123075399D01*
X132786718Y-123027780D01*
X132881956Y-122980161D01*
X133024813Y-122980161D01*
X133120051Y-123027780D01*
X133167670Y-123075399D01*
X133215289Y-123170637D01*
X133215289Y-123456351D01*
X133167670Y-123551589D01*
X133120051Y-123599208D01*
X133024813Y-123646827D01*
X132881956Y-123646827D01*
X133643861Y-122980161D02*
X133643861Y-123646827D01*
X133643861Y-123075399D02*
X133691480Y-123027780D01*
X133786718Y-122980161D01*
X133929575Y-122980161D01*
X134024813Y-123027780D01*
X134072432Y-123123018D01*
X134072432Y-123646827D01*
X139390380Y-120999285D02*
X139390380Y-121570714D01*
X139390380Y-121285000D02*
X138390380Y-121285000D01*
X138533238Y-121380238D01*
X138628476Y-121475476D01*
X138676095Y-121570714D01*
X162367818Y-115954150D02*
X162367818Y-116620816D01*
X162367818Y-116049388D02*
X162415437Y-116001769D01*
X162510675Y-115954150D01*
X162653532Y-115954150D01*
X162748770Y-116001769D01*
X162796389Y-116097007D01*
X162796389Y-116620816D01*
X163844008Y-116620816D02*
X163510675Y-116144626D01*
X163272580Y-116620816D02*
X163272580Y-115620816D01*
X163653532Y-115620816D01*
X163748770Y-115668436D01*
X163796389Y-115716055D01*
X163844008Y-115811293D01*
X163844008Y-115954150D01*
X163796389Y-116049388D01*
X163748770Y-116097007D01*
X163653532Y-116144626D01*
X163272580Y-116144626D01*
X164605913Y-116097007D02*
X164272580Y-116097007D01*
X164272580Y-116620816D02*
X164272580Y-115620816D01*
X164748770Y-115620816D01*
X165082104Y-115716055D02*
X165129723Y-115668436D01*
X165224961Y-115620816D01*
X165463056Y-115620816D01*
X165558294Y-115668436D01*
X165605913Y-115716055D01*
X165653532Y-115811293D01*
X165653532Y-115906531D01*
X165605913Y-116049388D01*
X165034485Y-116620816D01*
X165653532Y-116620816D01*
X166510675Y-115954150D02*
X166510675Y-116620816D01*
X166272580Y-115573197D02*
X166034485Y-116287483D01*
X166653532Y-116287483D01*
X167510675Y-116620816D02*
X167034485Y-116620816D01*
X167034485Y-115620816D01*
X168034485Y-115620816D02*
X168129723Y-115620816D01*
X168224961Y-115668436D01*
X168272580Y-115716055D01*
X168320199Y-115811293D01*
X168367818Y-116001769D01*
X168367818Y-116239864D01*
X168320199Y-116430340D01*
X168272580Y-116525578D01*
X168224961Y-116573197D01*
X168129723Y-116620816D01*
X168034485Y-116620816D01*
X167939247Y-116573197D01*
X167891627Y-116525578D01*
X167844008Y-116430340D01*
X167796389Y-116239864D01*
X167796389Y-116001769D01*
X167844008Y-115811293D01*
X167891627Y-115716055D01*
X167939247Y-115668436D01*
X168034485Y-115620816D01*
X169320199Y-116620816D02*
X168748770Y-116620816D01*
X169034485Y-116620816D02*
X169034485Y-115620816D01*
X168939247Y-115763674D01*
X168844008Y-115858912D01*
X168748770Y-115906531D01*
X169748770Y-116239864D02*
X170510675Y-116239864D01*
X170129723Y-116620816D02*
X170129723Y-115858912D01*
X137751013Y-84045207D02*
X137655775Y-83997588D01*
X137560537Y-83902349D01*
X137417680Y-83759492D01*
X137322442Y-83711873D01*
X137227204Y-83711873D01*
X137274823Y-83949968D02*
X137179585Y-83902349D01*
X137084347Y-83807111D01*
X137036727Y-83616635D01*
X137036727Y-83283302D01*
X137084347Y-83092826D01*
X137179585Y-82997588D01*
X137274823Y-82949968D01*
X137465299Y-82949968D01*
X137560537Y-82997588D01*
X137655775Y-83092826D01*
X137703394Y-83283302D01*
X137703394Y-83616635D01*
X137655775Y-83807111D01*
X137560537Y-83902349D01*
X137465299Y-83949968D01*
X137274823Y-83949968D01*
X138036727Y-83283302D02*
X138227204Y-83949968D01*
X138417680Y-83473778D01*
X138608156Y-83949968D01*
X138798632Y-83283302D01*
X139179585Y-83949968D02*
X139179585Y-83283302D01*
X139179585Y-82949968D02*
X139131966Y-82997588D01*
X139179585Y-83045207D01*
X139227204Y-82997588D01*
X139179585Y-82949968D01*
X139179585Y-83045207D01*
X139655775Y-83949968D02*
X139655775Y-83283302D01*
X139655775Y-82949968D02*
X139608156Y-82997588D01*
X139655775Y-83045207D01*
X139703394Y-82997588D01*
X139655775Y-82949968D01*
X139655775Y-83045207D01*
X140560537Y-83902349D02*
X140465299Y-83949968D01*
X140274823Y-83949968D01*
X140179585Y-83902349D01*
X140131966Y-83854730D01*
X140084347Y-83759492D01*
X140084347Y-83473778D01*
X140131966Y-83378540D01*
X140179585Y-83330921D01*
X140274823Y-83283302D01*
X140465299Y-83283302D01*
X140560537Y-83330921D01*
X141751013Y-83949968D02*
X141751013Y-82949968D01*
X142131966Y-82949968D01*
X142227204Y-82997588D01*
X142274823Y-83045207D01*
X142322442Y-83140445D01*
X142322442Y-83283302D01*
X142274823Y-83378540D01*
X142227204Y-83426159D01*
X142131966Y-83473778D01*
X141751013Y-83473778D01*
X142751013Y-83949968D02*
X142751013Y-82949968D01*
X142751013Y-83426159D02*
X143322442Y-83426159D01*
X143322442Y-83949968D02*
X143322442Y-82949968D01*
X143655775Y-82949968D02*
X144227204Y-82949968D01*
X143941489Y-83949968D02*
X143941489Y-82949968D01*
X127020716Y-125143901D02*
X127211193Y-125677234D01*
X127401669Y-125143901D01*
X128125478Y-125677234D02*
X127668335Y-125677234D01*
X127896907Y-125677234D02*
X127896907Y-124877234D01*
X127820716Y-124991520D01*
X127744526Y-125067710D01*
X127668335Y-125105806D01*
X128468335Y-125601044D02*
X128506431Y-125639139D01*
X128468335Y-125677234D01*
X128430240Y-125639139D01*
X128468335Y-125601044D01*
X128468335Y-125677234D01*
X129001669Y-124877234D02*
X129077859Y-124877234D01*
X129154050Y-124915330D01*
X129192145Y-124953425D01*
X129230240Y-125029615D01*
X129268335Y-125181996D01*
X129268335Y-125372472D01*
X129230240Y-125524853D01*
X129192145Y-125601044D01*
X129154050Y-125639139D01*
X129077859Y-125677234D01*
X129001669Y-125677234D01*
X128925478Y-125639139D01*
X128887383Y-125601044D01*
X128849288Y-125524853D01*
X128811193Y-125372472D01*
X128811193Y-125181996D01*
X128849288Y-125029615D01*
X128887383Y-124953425D01*
X128925478Y-124915330D01*
X129001669Y-124877234D01*
X160014841Y-86542142D02*
X161014841Y-86542142D01*
X160538650Y-86065952D02*
X160633888Y-86018333D01*
X160681507Y-85923095D01*
X160538650Y-86542142D02*
X160633888Y-86494523D01*
X160681507Y-86399285D01*
X160681507Y-86208809D01*
X160633888Y-86113571D01*
X160538650Y-86065952D01*
X160014841Y-86065952D01*
X160633888Y-85542142D02*
X160681507Y-85399285D01*
X160681507Y-85161190D01*
X160633888Y-85065952D01*
X160586269Y-85018333D01*
X160491031Y-84970714D01*
X160395793Y-84970714D01*
X160300555Y-85018333D01*
X160252936Y-85065952D01*
X160205317Y-85161190D01*
X160157698Y-85351666D01*
X160110079Y-85446904D01*
X160062460Y-85494523D01*
X159967222Y-85542142D01*
X159871984Y-85542142D01*
X159776746Y-85494523D01*
X159729127Y-85446904D01*
X159681507Y-85351666D01*
X159681507Y-85113571D01*
X159729127Y-84970714D01*
X160681507Y-84542142D02*
X159681507Y-84542142D01*
X159681507Y-84304047D01*
X159729127Y-84161190D01*
X159824365Y-84065952D01*
X159919603Y-84018333D01*
X160110079Y-83970714D01*
X160252936Y-83970714D01*
X160443412Y-84018333D01*
X160538650Y-84065952D01*
X160633888Y-84161190D01*
X160681507Y-84304047D01*
X160681507Y-84542142D01*
X160586269Y-82208809D02*
X160633888Y-82256428D01*
X160681507Y-82399285D01*
X160681507Y-82494523D01*
X160633888Y-82637380D01*
X160538650Y-82732619D01*
X160443412Y-82780238D01*
X160252936Y-82827857D01*
X160110079Y-82827857D01*
X159919603Y-82780238D01*
X159824365Y-82732619D01*
X159729127Y-82637380D01*
X159681507Y-82494523D01*
X159681507Y-82399285D01*
X159729127Y-82256428D01*
X159776746Y-82208809D01*
X160681507Y-81351666D02*
X160157698Y-81351666D01*
X160062460Y-81399285D01*
X160014841Y-81494523D01*
X160014841Y-81685000D01*
X160062460Y-81780238D01*
X160633888Y-81351666D02*
X160681507Y-81446904D01*
X160681507Y-81685000D01*
X160633888Y-81780238D01*
X160538650Y-81827857D01*
X160443412Y-81827857D01*
X160348174Y-81780238D01*
X160300555Y-81685000D01*
X160300555Y-81446904D01*
X160252936Y-81351666D01*
X160681507Y-80875476D02*
X160014841Y-80875476D01*
X160205317Y-80875476D02*
X160110079Y-80827857D01*
X160062460Y-80780238D01*
X160014841Y-80685000D01*
X160014841Y-80589761D01*
X160681507Y-79827857D02*
X159681507Y-79827857D01*
X160633888Y-79827857D02*
X160681507Y-79923095D01*
X160681507Y-80113571D01*
X160633888Y-80208809D01*
X160586269Y-80256428D01*
X160491031Y-80304047D01*
X160205317Y-80304047D01*
X160110079Y-80256428D01*
X160062460Y-80208809D01*
X160014841Y-80113571D01*
X160014841Y-79923095D01*
X160062460Y-79827857D01*
X130580084Y-118718271D02*
X130484846Y-118765890D01*
X130294370Y-118765890D01*
X130199132Y-118718271D01*
X130151513Y-118623033D01*
X130151513Y-118242081D01*
X130199132Y-118146843D01*
X130294370Y-118099224D01*
X130484846Y-118099224D01*
X130580084Y-118146843D01*
X130627703Y-118242081D01*
X130627703Y-118337319D01*
X130151513Y-118432557D01*
X131484846Y-118765890D02*
X131484846Y-118242081D01*
X131437227Y-118146843D01*
X131341989Y-118099224D01*
X131151513Y-118099224D01*
X131056275Y-118146843D01*
X131484846Y-118718271D02*
X131389608Y-118765890D01*
X131151513Y-118765890D01*
X131056275Y-118718271D01*
X131008656Y-118623033D01*
X131008656Y-118527795D01*
X131056275Y-118432557D01*
X131151513Y-118384938D01*
X131389608Y-118384938D01*
X131484846Y-118337319D01*
X131818180Y-118099224D02*
X132199132Y-118099224D01*
X131961037Y-117765890D02*
X131961037Y-118623033D01*
X132008656Y-118718271D01*
X132103894Y-118765890D01*
X132199132Y-118765890D01*
X132532465Y-118765890D02*
X132532465Y-117765890D01*
X132961037Y-118765890D02*
X132961037Y-118242081D01*
X132913418Y-118146843D01*
X132818180Y-118099224D01*
X132675322Y-118099224D01*
X132580084Y-118146843D01*
X132532465Y-118194462D01*
X133818180Y-118718271D02*
X133722941Y-118765890D01*
X133532465Y-118765890D01*
X133437227Y-118718271D01*
X133389608Y-118623033D01*
X133389608Y-118242081D01*
X133437227Y-118146843D01*
X133532465Y-118099224D01*
X133722941Y-118099224D01*
X133818180Y-118146843D01*
X133865799Y-118242081D01*
X133865799Y-118337319D01*
X133389608Y-118432557D01*
X134294370Y-118765890D02*
X134294370Y-118099224D01*
X134294370Y-118289700D02*
X134341989Y-118194462D01*
X134389608Y-118146843D01*
X134484846Y-118099224D01*
X134580084Y-118099224D01*
D11*
X128778000Y-107643593D02*
X128778000Y-109072164D01*
X127778000Y-106072164D02*
X128778000Y-107643593D01*
X129778000Y-106072164D01*
X128063714Y-113045022D02*
X129492285Y-113045022D01*
X127778000Y-113902164D02*
X128778000Y-110902164D01*
X129778000Y-113902164D01*
X127492285Y-115732164D02*
X128206571Y-118732164D01*
X128778000Y-116589307D01*
X129349428Y-118732164D01*
X130063714Y-115732164D01*
X127920857Y-123419307D02*
X128349428Y-123562164D01*
X129063714Y-123562164D01*
X129349428Y-123419307D01*
X129492285Y-123276450D01*
X129635142Y-122990736D01*
X129635142Y-122705022D01*
X129492285Y-122419307D01*
X129349428Y-122276450D01*
X129063714Y-122133593D01*
X128492285Y-121990736D01*
X128206571Y-121847879D01*
X128063714Y-121705022D01*
X127920857Y-121419307D01*
X127920857Y-121133593D01*
X128063714Y-120847879D01*
X128206571Y-120705022D01*
X128492285Y-120562164D01*
X129206571Y-120562164D01*
X129635142Y-120705022D01*
D10*
X130376007Y-113254338D02*
X130376007Y-113921004D01*
X130376007Y-113349576D02*
X130423626Y-113301957D01*
X130518865Y-113254338D01*
X130661722Y-113254338D01*
X130756960Y-113301957D01*
X130804579Y-113397195D01*
X130804579Y-113921004D01*
X131423626Y-113921004D02*
X131328388Y-113873385D01*
X131280769Y-113825766D01*
X131233150Y-113730528D01*
X131233150Y-113444814D01*
X131280769Y-113349576D01*
X131328388Y-113301957D01*
X131423626Y-113254338D01*
X131566484Y-113254338D01*
X131661722Y-113301957D01*
X131709341Y-113349576D01*
X131756960Y-113444814D01*
X131756960Y-113730528D01*
X131709341Y-113825766D01*
X131661722Y-113873385D01*
X131566484Y-113921004D01*
X131423626Y-113921004D01*
X132042674Y-113254338D02*
X132423626Y-113254338D01*
X132185531Y-112921004D02*
X132185531Y-113778147D01*
X132233150Y-113873385D01*
X132328388Y-113921004D01*
X132423626Y-113921004D01*
X132756960Y-113921004D02*
X132756960Y-112921004D01*
X133185531Y-113921004D02*
X133185531Y-113397195D01*
X133137912Y-113301957D01*
X133042674Y-113254338D01*
X132899817Y-113254338D01*
X132804579Y-113301957D01*
X132756960Y-113349576D01*
X134042674Y-113873385D02*
X133947436Y-113921004D01*
X133756960Y-113921004D01*
X133661722Y-113873385D01*
X133614103Y-113778147D01*
X133614103Y-113397195D01*
X133661722Y-113301957D01*
X133756960Y-113254338D01*
X133947436Y-113254338D01*
X134042674Y-113301957D01*
X134090293Y-113397195D01*
X134090293Y-113492433D01*
X133614103Y-113587671D01*
X134518865Y-113921004D02*
X134518865Y-113254338D01*
X134518865Y-113444814D02*
X134566484Y-113349576D01*
X134614103Y-113301957D01*
X134709341Y-113254338D01*
X134804579Y-113254338D01*
X129963789Y-109069924D02*
X129868551Y-109117543D01*
X129678075Y-109117543D01*
X129582837Y-109069924D01*
X129535218Y-108974686D01*
X129535218Y-108593734D01*
X129582837Y-108498496D01*
X129678075Y-108450877D01*
X129868551Y-108450877D01*
X129963789Y-108498496D01*
X130011408Y-108593734D01*
X130011408Y-108688972D01*
X129535218Y-108784210D01*
X130297123Y-108450877D02*
X130678075Y-108450877D01*
X130439980Y-108117543D02*
X130439980Y-108974686D01*
X130487599Y-109069924D01*
X130582837Y-109117543D01*
X130678075Y-109117543D01*
%TO.C,P1*%
X147089904Y-121737380D02*
X147089904Y-120737380D01*
X147470857Y-120737380D01*
X147566095Y-120785000D01*
X147613714Y-120832619D01*
X147661333Y-120927857D01*
X147661333Y-121070714D01*
X147613714Y-121165952D01*
X147566095Y-121213571D01*
X147470857Y-121261190D01*
X147089904Y-121261190D01*
X148613714Y-121737380D02*
X148042285Y-121737380D01*
X148328000Y-121737380D02*
X148328000Y-120737380D01*
X148232761Y-120880238D01*
X148137523Y-120975476D01*
X148042285Y-121023095D01*
%TO.C,P2*%
X167663904Y-121737380D02*
X167663904Y-120737380D01*
X168044857Y-120737380D01*
X168140095Y-120785000D01*
X168187714Y-120832619D01*
X168235333Y-120927857D01*
X168235333Y-121070714D01*
X168187714Y-121165952D01*
X168140095Y-121213571D01*
X168044857Y-121261190D01*
X167663904Y-121261190D01*
X168616285Y-120832619D02*
X168663904Y-120785000D01*
X168759142Y-120737380D01*
X168997238Y-120737380D01*
X169092476Y-120785000D01*
X169140095Y-120832619D01*
X169187714Y-120927857D01*
X169187714Y-121023095D01*
X169140095Y-121165952D01*
X168568666Y-121737380D01*
X169187714Y-121737380D01*
%TO.C,P3*%
X140485904Y-78557380D02*
X140485904Y-77557380D01*
X140866857Y-77557380D01*
X140962095Y-77605000D01*
X141009714Y-77652619D01*
X141057333Y-77747857D01*
X141057333Y-77890714D01*
X141009714Y-77985952D01*
X140962095Y-78033571D01*
X140866857Y-78081190D01*
X140485904Y-78081190D01*
X141390666Y-77557380D02*
X142009714Y-77557380D01*
X141676380Y-77938333D01*
X141819238Y-77938333D01*
X141914476Y-77985952D01*
X141962095Y-78033571D01*
X142009714Y-78128809D01*
X142009714Y-78366904D01*
X141962095Y-78462142D01*
X141914476Y-78509761D01*
X141819238Y-78557380D01*
X141533523Y-78557380D01*
X141438285Y-78509761D01*
X141390666Y-78462142D01*
%TO.C,P4*%
X164970266Y-79288018D02*
X164970266Y-78288018D01*
X165351219Y-78288018D01*
X165446457Y-78335638D01*
X165494076Y-78383257D01*
X165541695Y-78478495D01*
X165541695Y-78621352D01*
X165494076Y-78716590D01*
X165446457Y-78764209D01*
X165351219Y-78811828D01*
X164970266Y-78811828D01*
X166398838Y-78621352D02*
X166398838Y-79288018D01*
X166160742Y-78240399D02*
X165922647Y-78954685D01*
X166541695Y-78954685D01*
%TO.C,U1*%
X145800380Y-81406904D02*
X146609904Y-81406904D01*
X146705142Y-81359285D01*
X146752761Y-81311666D01*
X146800380Y-81216428D01*
X146800380Y-81025952D01*
X146752761Y-80930714D01*
X146705142Y-80883095D01*
X146609904Y-80835476D01*
X145800380Y-80835476D01*
X146800380Y-79835476D02*
X146800380Y-80406904D01*
X146800380Y-80121190D02*
X145800380Y-80121190D01*
X145943238Y-80216428D01*
X146038476Y-80311666D01*
X146086095Y-80406904D01*
%TO.C,J1*%
X158256996Y-78433284D02*
X158256996Y-79147570D01*
X158209377Y-79290427D01*
X158114139Y-79385665D01*
X157971282Y-79433284D01*
X157876044Y-79433284D01*
X159256996Y-79433284D02*
X158685568Y-79433284D01*
X158971282Y-79433284D02*
X158971282Y-78433284D01*
X158876044Y-78576142D01*
X158780806Y-78671380D01*
X158685568Y-78718999D01*
%TO.C,U2*%
X153840380Y-119506904D02*
X154649904Y-119506904D01*
X154745142Y-119459285D01*
X154792761Y-119411666D01*
X154840380Y-119316428D01*
X154840380Y-119125952D01*
X154792761Y-119030714D01*
X154745142Y-118983095D01*
X154649904Y-118935476D01*
X153840380Y-118935476D01*
X153935619Y-118506904D02*
X153888000Y-118459285D01*
X153840380Y-118364047D01*
X153840380Y-118125952D01*
X153888000Y-118030714D01*
X153935619Y-117983095D01*
X154030857Y-117935476D01*
X154126095Y-117935476D01*
X154268952Y-117983095D01*
X154840380Y-118554523D01*
X154840380Y-117935476D01*
%TO.C,P1*%
X137388000Y-125375000D02*
X138938000Y-125375000D01*
X140208000Y-125095000D02*
X140208000Y-122555000D01*
X140208000Y-125095000D02*
X157988000Y-125095000D01*
X157988000Y-125095000D02*
X157988000Y-122555000D01*
X137388000Y-122275000D02*
X137388000Y-125375000D01*
X157988000Y-122555000D02*
X140208000Y-122555000D01*
X138938000Y-122275000D02*
X137388000Y-122275000D01*
%TO.C,P2*%
X163068000Y-125095000D02*
X163068000Y-122555000D01*
X163068000Y-125095000D02*
X175768000Y-125095000D01*
X160248000Y-125375000D02*
X161798000Y-125375000D01*
X175768000Y-125095000D02*
X175768000Y-122555000D01*
X161798000Y-122275000D02*
X160248000Y-122275000D01*
X160248000Y-122275000D02*
X160248000Y-125375000D01*
X175768000Y-122555000D02*
X163068000Y-122555000D01*
%TO.C,P3*%
X128244000Y-77115000D02*
X129794000Y-77115000D01*
X129794000Y-74015000D02*
X128244000Y-74015000D01*
X131064000Y-76835000D02*
X153924000Y-76835000D01*
X131064000Y-76835000D02*
X131064000Y-74295000D01*
X153924000Y-74295000D02*
X131064000Y-74295000D01*
X128244000Y-74015000D02*
X128244000Y-77115000D01*
X153924000Y-76835000D02*
X153924000Y-74295000D01*
%TO.C,P4*%
X155168000Y-74015000D02*
X155168000Y-77115000D01*
X175768000Y-76835000D02*
X175768000Y-74295000D01*
X157988000Y-76835000D02*
X157988000Y-74295000D01*
X157988000Y-76835000D02*
X175768000Y-76835000D01*
X175768000Y-74295000D02*
X157988000Y-74295000D01*
X156718000Y-74015000D02*
X155168000Y-74015000D01*
X155168000Y-77115000D02*
X156718000Y-77115000D01*
D12*
%TO.C,U1*%
X145348000Y-79315000D02*
X145348000Y-80645000D01*
X135068000Y-79315000D02*
X135068000Y-81975000D01*
X142748000Y-79315000D02*
X135068000Y-79315000D01*
X142748000Y-79315000D02*
X142748000Y-81975000D01*
X142748000Y-81975000D02*
X135068000Y-81975000D01*
X144018000Y-79315000D02*
X145348000Y-79315000D01*
%TO.C,J1*%
X158048000Y-81915000D02*
X158048000Y-94675000D01*
X155388000Y-81915000D02*
X155388000Y-94675000D01*
X155388000Y-94675000D02*
X158048000Y-94675000D01*
X155388000Y-79315000D02*
X156718000Y-79315000D01*
X155388000Y-80645000D02*
X155388000Y-79315000D01*
X155388000Y-81915000D02*
X158048000Y-81915000D01*
%TO.C,U2*%
X175828000Y-120075000D02*
X175828000Y-117415000D01*
X156718000Y-120075000D02*
X155388000Y-120075000D01*
X157988000Y-120075000D02*
X175828000Y-120075000D01*
X155388000Y-120075000D02*
X155388000Y-118745000D01*
X157988000Y-117415000D02*
X175828000Y-117415000D01*
X157988000Y-120075000D02*
X157988000Y-117415000D01*
%TD*%
D13*
%TO.C,P1*%
X138938000Y-123825000D03*
X141478000Y-123825000D03*
X144018000Y-123825000D03*
X146558000Y-123825000D03*
X149098000Y-123825000D03*
X151638000Y-123825000D03*
X154178000Y-123825000D03*
X156718000Y-123825000D03*
%TD*%
%TO.C,P2*%
X161798000Y-123825000D03*
X164338000Y-123825000D03*
X166878000Y-123825000D03*
X169418000Y-123825000D03*
X171958000Y-123825000D03*
X174498000Y-123825000D03*
%TD*%
%TO.C,P3*%
X129794000Y-75565000D03*
X132334000Y-75565000D03*
X134874000Y-75565000D03*
X137414000Y-75565000D03*
X139954000Y-75565000D03*
X142494000Y-75565000D03*
X145034000Y-75565000D03*
X147574000Y-75565000D03*
X150114000Y-75565000D03*
X152654000Y-75565000D03*
%TD*%
%TO.C,P4*%
X156718000Y-75565000D03*
X159258000Y-75565000D03*
X161798000Y-75565000D03*
X164338000Y-75565000D03*
X166878000Y-75565000D03*
X169418000Y-75565000D03*
X171958000Y-75565000D03*
X174498000Y-75565000D03*
%TD*%
M02*
