%TF.GenerationSoftware,KiCad,Pcbnew,(6.0.1)*%
%TF.CreationDate,2022-03-15T17:59:04+02:00*%
%TF.ProjectId,YAWS,59415753-2e6b-4696-9361-645f70636258,rev?*%
%TF.SameCoordinates,Original*%
%TF.FileFunction,Copper,L1,Top*%
%TF.FilePolarity,Positive*%
%FSLAX46Y46*%
G04 Gerber Fmt 4.6, Leading zero omitted, Abs format (unit mm)*
G04 Created by KiCad (PCBNEW (6.0.1)) date 2022-03-15 17:59:04*
%MOMM*%
%LPD*%
G01*
G04 APERTURE LIST*
%TA.AperFunction,ComponentPad*%
%ADD10O,1.727200X2.032000*%
%TD*%
%TA.AperFunction,ComponentPad*%
%ADD11R,1.700000X1.700000*%
%TD*%
%TA.AperFunction,ComponentPad*%
%ADD12O,1.700000X1.700000*%
%TD*%
%TA.AperFunction,Conductor*%
%ADD13C,0.250000*%
%TD*%
G04 APERTURE END LIST*
D10*
%TO.P,P1,1,Pin_1*%
%TO.N,unconnected-(P1-Pad1)*%
X138938000Y-123825000D03*
%TO.P,P1,2,Pin_2*%
%TO.N,/IOREF*%
X141478000Y-123825000D03*
%TO.P,P1,3,Pin_3*%
%TO.N,/Reset*%
X144018000Y-123825000D03*
%TO.P,P1,4,Pin_4*%
%TO.N,+3V3*%
X146558000Y-123825000D03*
%TO.P,P1,5,Pin_5*%
%TO.N,+5V*%
X149098000Y-123825000D03*
%TO.P,P1,6,Pin_6*%
%TO.N,GND*%
X151638000Y-123825000D03*
%TO.P,P1,7,Pin_7*%
X154178000Y-123825000D03*
%TO.P,P1,8,Pin_8*%
%TO.N,/Vin*%
X156718000Y-123825000D03*
%TD*%
%TO.P,P2,1,Pin_1*%
%TO.N,/A0*%
X161798000Y-123825000D03*
%TO.P,P2,2,Pin_2*%
%TO.N,/A1*%
X164338000Y-123825000D03*
%TO.P,P2,3,Pin_3*%
%TO.N,/A2*%
X166878000Y-123825000D03*
%TO.P,P2,4,Pin_4*%
%TO.N,/A3*%
X169418000Y-123825000D03*
%TO.P,P2,5,Pin_5*%
%TO.N,unconnected-(P2-Pad5)*%
X171958000Y-123825000D03*
%TO.P,P2,6,Pin_6*%
%TO.N,unconnected-(P2-Pad6)*%
X174498000Y-123825000D03*
%TD*%
%TO.P,P3,1,Pin_1*%
%TO.N,SCL*%
X129794000Y-75565000D03*
%TO.P,P3,2,Pin_2*%
%TO.N,SDA*%
X132334000Y-75565000D03*
%TO.P,P3,3,Pin_3*%
%TO.N,/AREF*%
X134874000Y-75565000D03*
%TO.P,P3,4,Pin_4*%
%TO.N,GND*%
X137414000Y-75565000D03*
%TO.P,P3,5,Pin_5*%
%TO.N,SCK*%
X139954000Y-75565000D03*
%TO.P,P3,6,Pin_6*%
%TO.N,MISO*%
X142494000Y-75565000D03*
%TO.P,P3,7,Pin_7*%
%TO.N,MOSI*%
X145034000Y-75565000D03*
%TO.P,P3,8,Pin_8*%
%TO.N,CS1*%
X147574000Y-75565000D03*
%TO.P,P3,9,Pin_9*%
%TO.N,CS2*%
X150114000Y-75565000D03*
%TO.P,P3,10,Pin_10*%
%TO.N,/8*%
X152654000Y-75565000D03*
%TD*%
%TO.P,P4,1,Pin_1*%
%TO.N,NRF_IRQ*%
X156718000Y-75565000D03*
%TO.P,P4,2,Pin_2*%
%TO.N,NRF_CE*%
X159258000Y-75565000D03*
%TO.P,P4,3,Pin_3*%
%TO.N,/5(\u002A\u002A)*%
X161798000Y-75565000D03*
%TO.P,P4,4,Pin_4*%
%TO.N,/4*%
X164338000Y-75565000D03*
%TO.P,P4,5,Pin_5*%
%TO.N,/3(\u002A\u002A)*%
X166878000Y-75565000D03*
%TO.P,P4,6,Pin_6*%
%TO.N,/2*%
X169418000Y-75565000D03*
%TO.P,P4,7,Pin_7*%
%TO.N,/1(Tx)*%
X171958000Y-75565000D03*
%TO.P,P4,8,Pin_8*%
%TO.N,/0(Rx)*%
X174498000Y-75565000D03*
%TD*%
D11*
%TO.P,U1,1,GND*%
%TO.N,GND*%
X144018000Y-80645000D03*
D12*
%TO.P,U1,2,3.3V*%
%TO.N,+3V3*%
X141478000Y-80645000D03*
%TO.P,U1,3,SDA*%
%TO.N,SDA*%
X138938000Y-80645000D03*
%TO.P,U1,4,SCL*%
%TO.N,SCL*%
X136398000Y-80645000D03*
%TD*%
D11*
%TO.P,J1,1,Pin_1*%
%TO.N,+3V3*%
X156718000Y-80645000D03*
D12*
%TO.P,J1,2,Pin_2*%
%TO.N,CS2*%
X156718000Y-83185000D03*
%TO.P,J1,3,Pin_3*%
%TO.N,MOSI*%
X156718000Y-85725000D03*
%TO.P,J1,4,Pin_4*%
%TO.N,SCK*%
X156718000Y-88265000D03*
%TO.P,J1,5,Pin_5*%
%TO.N,MISO*%
X156718000Y-90805000D03*
%TO.P,J1,6,Pin_6*%
%TO.N,GND*%
X156718000Y-93345000D03*
%TD*%
D11*
%TO.P,U2,1,VCC*%
%TO.N,+3V3*%
X156718000Y-118745000D03*
D12*
%TO.P,U2,2,CE*%
%TO.N,NRF_CE*%
X159258000Y-118745000D03*
%TO.P,U2,3,~{CS}*%
%TO.N,CS1*%
X161798000Y-118745000D03*
%TO.P,U2,4,SCK*%
%TO.N,SCK*%
X164338000Y-118745000D03*
%TO.P,U2,5,MOSI*%
%TO.N,MOSI*%
X166878000Y-118745000D03*
%TO.P,U2,6,MISO*%
%TO.N,MISO*%
X169418000Y-118745000D03*
%TO.P,U2,7,IRQ*%
%TO.N,NRF_IRQ*%
X171958000Y-118745000D03*
%TO.P,U2,8,GND*%
%TO.N,GND*%
X174498000Y-118745000D03*
%TD*%
D13*
%TO.N,CS1*%
X158083489Y-119231499D02*
X158083489Y-97250489D01*
X161798000Y-118745000D02*
X160623489Y-119919511D01*
X160623489Y-119919511D02*
X158771501Y-119919511D01*
X147574000Y-86741000D02*
X147574000Y-75565000D01*
X158771501Y-119919511D02*
X158083489Y-119231499D01*
X158083489Y-97250489D02*
X147574000Y-86741000D01*
%TO.N,NRF_CE*%
X159258000Y-75565000D02*
X159258000Y-118745000D01*
%TO.N,SDA*%
X135567495Y-78798495D02*
X137091495Y-78798495D01*
X137091495Y-78798495D02*
X138938000Y-80645000D01*
X135567495Y-78798495D02*
X132334000Y-75565000D01*
%TO.N,SCL*%
X134874000Y-80645000D02*
X129794000Y-75565000D01*
X134874000Y-80645000D02*
X136398000Y-80645000D01*
%TD*%
%TA.AperFunction,Conductor*%
%TO.N,GND*%
G36*
X176472121Y-73553002D02*
G01*
X176518614Y-73606658D01*
X176530000Y-73659000D01*
X176530000Y-125731000D01*
X176509998Y-125799121D01*
X176456342Y-125845614D01*
X176404000Y-125857000D01*
X126872000Y-125857000D01*
X126803879Y-125836998D01*
X126757386Y-125783342D01*
X126746000Y-125731000D01*
X126746000Y-124035868D01*
X137565900Y-124035868D01*
X137580626Y-124209420D01*
X137581964Y-124214577D01*
X137581965Y-124214580D01*
X137614816Y-124341146D01*
X137639125Y-124434806D01*
X137734762Y-124647113D01*
X137864804Y-124840272D01*
X138025532Y-125008758D01*
X138212350Y-125147754D01*
X138217102Y-125150170D01*
X138414244Y-125250402D01*
X138419916Y-125253286D01*
X138531106Y-125287812D01*
X138637193Y-125320753D01*
X138637199Y-125320754D01*
X138642296Y-125322337D01*
X138766660Y-125338820D01*
X138867848Y-125352232D01*
X138867852Y-125352232D01*
X138873132Y-125352932D01*
X138878462Y-125352732D01*
X138878463Y-125352732D01*
X138989477Y-125348564D01*
X139105822Y-125344197D01*
X139270713Y-125309599D01*
X139328486Y-125297477D01*
X139328489Y-125297476D01*
X139333713Y-125296380D01*
X139550290Y-125210850D01*
X139749359Y-125090051D01*
X139847492Y-125004896D01*
X139921197Y-124940939D01*
X139921199Y-124940937D01*
X139925230Y-124937439D01*
X139928613Y-124933313D01*
X139928617Y-124933309D01*
X140069487Y-124761504D01*
X140072872Y-124757376D01*
X140075672Y-124752458D01*
X140098845Y-124711748D01*
X140149927Y-124662442D01*
X140219558Y-124648580D01*
X140285629Y-124674563D01*
X140312867Y-124703713D01*
X140404804Y-124840272D01*
X140565532Y-125008758D01*
X140752350Y-125147754D01*
X140757102Y-125150170D01*
X140954244Y-125250402D01*
X140959916Y-125253286D01*
X141071106Y-125287812D01*
X141177193Y-125320753D01*
X141177199Y-125320754D01*
X141182296Y-125322337D01*
X141306660Y-125338820D01*
X141407848Y-125352232D01*
X141407852Y-125352232D01*
X141413132Y-125352932D01*
X141418462Y-125352732D01*
X141418463Y-125352732D01*
X141529477Y-125348564D01*
X141645822Y-125344197D01*
X141810713Y-125309599D01*
X141868486Y-125297477D01*
X141868489Y-125297476D01*
X141873713Y-125296380D01*
X142090290Y-125210850D01*
X142289359Y-125090051D01*
X142387492Y-125004896D01*
X142461197Y-124940939D01*
X142461199Y-124940937D01*
X142465230Y-124937439D01*
X142468613Y-124933313D01*
X142468617Y-124933309D01*
X142609487Y-124761504D01*
X142612872Y-124757376D01*
X142615672Y-124752458D01*
X142638845Y-124711748D01*
X142689927Y-124662442D01*
X142759558Y-124648580D01*
X142825629Y-124674563D01*
X142852867Y-124703713D01*
X142944804Y-124840272D01*
X143105532Y-125008758D01*
X143292350Y-125147754D01*
X143297102Y-125150170D01*
X143494244Y-125250402D01*
X143499916Y-125253286D01*
X143611106Y-125287812D01*
X143717193Y-125320753D01*
X143717199Y-125320754D01*
X143722296Y-125322337D01*
X143846660Y-125338820D01*
X143947848Y-125352232D01*
X143947852Y-125352232D01*
X143953132Y-125352932D01*
X143958462Y-125352732D01*
X143958463Y-125352732D01*
X144069477Y-125348564D01*
X144185822Y-125344197D01*
X144350713Y-125309599D01*
X144408486Y-125297477D01*
X144408489Y-125297476D01*
X144413713Y-125296380D01*
X144630290Y-125210850D01*
X144829359Y-125090051D01*
X144927492Y-125004896D01*
X145001197Y-124940939D01*
X145001199Y-124940937D01*
X145005230Y-124937439D01*
X145008613Y-124933313D01*
X145008617Y-124933309D01*
X145149487Y-124761504D01*
X145152872Y-124757376D01*
X145155672Y-124752458D01*
X145178845Y-124711748D01*
X145229927Y-124662442D01*
X145299558Y-124648580D01*
X145365629Y-124674563D01*
X145392867Y-124703713D01*
X145484804Y-124840272D01*
X145645532Y-125008758D01*
X145832350Y-125147754D01*
X145837102Y-125150170D01*
X146034244Y-125250402D01*
X146039916Y-125253286D01*
X146151106Y-125287812D01*
X146257193Y-125320753D01*
X146257199Y-125320754D01*
X146262296Y-125322337D01*
X146386660Y-125338820D01*
X146487848Y-125352232D01*
X146487852Y-125352232D01*
X146493132Y-125352932D01*
X146498462Y-125352732D01*
X146498463Y-125352732D01*
X146609477Y-125348564D01*
X146725822Y-125344197D01*
X146890713Y-125309599D01*
X146948486Y-125297477D01*
X146948489Y-125297476D01*
X146953713Y-125296380D01*
X147170290Y-125210850D01*
X147369359Y-125090051D01*
X147467492Y-125004896D01*
X147541197Y-124940939D01*
X147541199Y-124940937D01*
X147545230Y-124937439D01*
X147548613Y-124933313D01*
X147548617Y-124933309D01*
X147689487Y-124761504D01*
X147692872Y-124757376D01*
X147695672Y-124752458D01*
X147718845Y-124711748D01*
X147769927Y-124662442D01*
X147839558Y-124648580D01*
X147905629Y-124674563D01*
X147932867Y-124703713D01*
X148024804Y-124840272D01*
X148185532Y-125008758D01*
X148372350Y-125147754D01*
X148377102Y-125150170D01*
X148574244Y-125250402D01*
X148579916Y-125253286D01*
X148691106Y-125287812D01*
X148797193Y-125320753D01*
X148797199Y-125320754D01*
X148802296Y-125322337D01*
X148926660Y-125338820D01*
X149027848Y-125352232D01*
X149027852Y-125352232D01*
X149033132Y-125352932D01*
X149038462Y-125352732D01*
X149038463Y-125352732D01*
X149149477Y-125348564D01*
X149265822Y-125344197D01*
X149430713Y-125309599D01*
X149488486Y-125297477D01*
X149488489Y-125297476D01*
X149493713Y-125296380D01*
X149710290Y-125210850D01*
X149909359Y-125090051D01*
X150007492Y-125004896D01*
X150081197Y-124940939D01*
X150081199Y-124940937D01*
X150085230Y-124937439D01*
X150088613Y-124933313D01*
X150088617Y-124933309D01*
X150229487Y-124761504D01*
X150232872Y-124757376D01*
X150259122Y-124711261D01*
X150310202Y-124661956D01*
X150379832Y-124648094D01*
X150445904Y-124674077D01*
X150473143Y-124703227D01*
X150562215Y-124835530D01*
X150568876Y-124843816D01*
X150722180Y-125004520D01*
X150730148Y-125011569D01*
X150908336Y-125144144D01*
X150917366Y-125149743D01*
X151115347Y-125250402D01*
X151125208Y-125254405D01*
X151337301Y-125320263D01*
X151347696Y-125322548D01*
X151366041Y-125324980D01*
X151380208Y-125322783D01*
X151384000Y-125309599D01*
X151384000Y-125307488D01*
X151892000Y-125307488D01*
X151895973Y-125321019D01*
X151906580Y-125322544D01*
X152028343Y-125296996D01*
X152038539Y-125293936D01*
X152245097Y-125212363D01*
X152254634Y-125207629D01*
X152444503Y-125092414D01*
X152453093Y-125086150D01*
X152620837Y-124940589D01*
X152628257Y-124932959D01*
X152769073Y-124761220D01*
X152775095Y-124752458D01*
X152798810Y-124710798D01*
X152849893Y-124661492D01*
X152919524Y-124647631D01*
X152985594Y-124673615D01*
X153012832Y-124702764D01*
X153102215Y-124835531D01*
X153108876Y-124843816D01*
X153262180Y-125004520D01*
X153270148Y-125011569D01*
X153448336Y-125144144D01*
X153457366Y-125149743D01*
X153655347Y-125250402D01*
X153665208Y-125254405D01*
X153877301Y-125320263D01*
X153887696Y-125322548D01*
X153906041Y-125324980D01*
X153920208Y-125322783D01*
X153924000Y-125309599D01*
X153924000Y-125307488D01*
X154432000Y-125307488D01*
X154435973Y-125321019D01*
X154446580Y-125322544D01*
X154568343Y-125296996D01*
X154578539Y-125293936D01*
X154785097Y-125212363D01*
X154794634Y-125207629D01*
X154984503Y-125092414D01*
X154993093Y-125086150D01*
X155160837Y-124940589D01*
X155168257Y-124932959D01*
X155309073Y-124761220D01*
X155315102Y-124752449D01*
X155338533Y-124711285D01*
X155389615Y-124661978D01*
X155459245Y-124648116D01*
X155525316Y-124674099D01*
X155552555Y-124703249D01*
X155644804Y-124840272D01*
X155805532Y-125008758D01*
X155992350Y-125147754D01*
X155997102Y-125150170D01*
X156194244Y-125250402D01*
X156199916Y-125253286D01*
X156311106Y-125287812D01*
X156417193Y-125320753D01*
X156417199Y-125320754D01*
X156422296Y-125322337D01*
X156546660Y-125338820D01*
X156647848Y-125352232D01*
X156647852Y-125352232D01*
X156653132Y-125352932D01*
X156658462Y-125352732D01*
X156658463Y-125352732D01*
X156769477Y-125348564D01*
X156885822Y-125344197D01*
X157050713Y-125309599D01*
X157108486Y-125297477D01*
X157108489Y-125297476D01*
X157113713Y-125296380D01*
X157330290Y-125210850D01*
X157529359Y-125090051D01*
X157627492Y-125004896D01*
X157701197Y-124940939D01*
X157701199Y-124940937D01*
X157705230Y-124937439D01*
X157708613Y-124933313D01*
X157708617Y-124933309D01*
X157849487Y-124761504D01*
X157852872Y-124757376D01*
X157855672Y-124752458D01*
X157965422Y-124559654D01*
X157968065Y-124555011D01*
X157988239Y-124499435D01*
X158045695Y-124341146D01*
X158045696Y-124341142D01*
X158047515Y-124336131D01*
X158088950Y-124106993D01*
X158089632Y-124092548D01*
X158090030Y-124084095D01*
X158090030Y-124084086D01*
X158090100Y-124082606D01*
X158090100Y-124035868D01*
X160425900Y-124035868D01*
X160440626Y-124209420D01*
X160441964Y-124214577D01*
X160441965Y-124214580D01*
X160474816Y-124341146D01*
X160499125Y-124434806D01*
X160594762Y-124647113D01*
X160724804Y-124840272D01*
X160885532Y-125008758D01*
X161072350Y-125147754D01*
X161077102Y-125150170D01*
X161274244Y-125250402D01*
X161279916Y-125253286D01*
X161391106Y-125287812D01*
X161497193Y-125320753D01*
X161497199Y-125320754D01*
X161502296Y-125322337D01*
X161626660Y-125338820D01*
X161727848Y-125352232D01*
X161727852Y-125352232D01*
X161733132Y-125352932D01*
X161738462Y-125352732D01*
X161738463Y-125352732D01*
X161849477Y-125348564D01*
X161965822Y-125344197D01*
X162130713Y-125309599D01*
X162188486Y-125297477D01*
X162188489Y-125297476D01*
X162193713Y-125296380D01*
X162410290Y-125210850D01*
X162609359Y-125090051D01*
X162707492Y-125004896D01*
X162781197Y-124940939D01*
X162781199Y-124940937D01*
X162785230Y-124937439D01*
X162788613Y-124933313D01*
X162788617Y-124933309D01*
X162929487Y-124761504D01*
X162932872Y-124757376D01*
X162935672Y-124752458D01*
X162958845Y-124711748D01*
X163009927Y-124662442D01*
X163079558Y-124648580D01*
X163145629Y-124674563D01*
X163172867Y-124703713D01*
X163264804Y-124840272D01*
X163425532Y-125008758D01*
X163612350Y-125147754D01*
X163617102Y-125150170D01*
X163814244Y-125250402D01*
X163819916Y-125253286D01*
X163931106Y-125287812D01*
X164037193Y-125320753D01*
X164037199Y-125320754D01*
X164042296Y-125322337D01*
X164166660Y-125338820D01*
X164267848Y-125352232D01*
X164267852Y-125352232D01*
X164273132Y-125352932D01*
X164278462Y-125352732D01*
X164278463Y-125352732D01*
X164389477Y-125348564D01*
X164505822Y-125344197D01*
X164670713Y-125309599D01*
X164728486Y-125297477D01*
X164728489Y-125297476D01*
X164733713Y-125296380D01*
X164950290Y-125210850D01*
X165149359Y-125090051D01*
X165247492Y-125004896D01*
X165321197Y-124940939D01*
X165321199Y-124940937D01*
X165325230Y-124937439D01*
X165328613Y-124933313D01*
X165328617Y-124933309D01*
X165469487Y-124761504D01*
X165472872Y-124757376D01*
X165475672Y-124752458D01*
X165498845Y-124711748D01*
X165549927Y-124662442D01*
X165619558Y-124648580D01*
X165685629Y-124674563D01*
X165712867Y-124703713D01*
X165804804Y-124840272D01*
X165965532Y-125008758D01*
X166152350Y-125147754D01*
X166157102Y-125150170D01*
X166354244Y-125250402D01*
X166359916Y-125253286D01*
X166471106Y-125287812D01*
X166577193Y-125320753D01*
X166577199Y-125320754D01*
X166582296Y-125322337D01*
X166706660Y-125338820D01*
X166807848Y-125352232D01*
X166807852Y-125352232D01*
X166813132Y-125352932D01*
X166818462Y-125352732D01*
X166818463Y-125352732D01*
X166929477Y-125348564D01*
X167045822Y-125344197D01*
X167210713Y-125309599D01*
X167268486Y-125297477D01*
X167268489Y-125297476D01*
X167273713Y-125296380D01*
X167490290Y-125210850D01*
X167689359Y-125090051D01*
X167787492Y-125004896D01*
X167861197Y-124940939D01*
X167861199Y-124940937D01*
X167865230Y-124937439D01*
X167868613Y-124933313D01*
X167868617Y-124933309D01*
X168009487Y-124761504D01*
X168012872Y-124757376D01*
X168015672Y-124752458D01*
X168038845Y-124711748D01*
X168089927Y-124662442D01*
X168159558Y-124648580D01*
X168225629Y-124674563D01*
X168252867Y-124703713D01*
X168344804Y-124840272D01*
X168505532Y-125008758D01*
X168692350Y-125147754D01*
X168697102Y-125150170D01*
X168894244Y-125250402D01*
X168899916Y-125253286D01*
X169011106Y-125287812D01*
X169117193Y-125320753D01*
X169117199Y-125320754D01*
X169122296Y-125322337D01*
X169246660Y-125338820D01*
X169347848Y-125352232D01*
X169347852Y-125352232D01*
X169353132Y-125352932D01*
X169358462Y-125352732D01*
X169358463Y-125352732D01*
X169469477Y-125348564D01*
X169585822Y-125344197D01*
X169750713Y-125309599D01*
X169808486Y-125297477D01*
X169808489Y-125297476D01*
X169813713Y-125296380D01*
X170030290Y-125210850D01*
X170229359Y-125090051D01*
X170327492Y-125004896D01*
X170401197Y-124940939D01*
X170401199Y-124940937D01*
X170405230Y-124937439D01*
X170408613Y-124933313D01*
X170408617Y-124933309D01*
X170549487Y-124761504D01*
X170552872Y-124757376D01*
X170555672Y-124752458D01*
X170578845Y-124711748D01*
X170629927Y-124662442D01*
X170699558Y-124648580D01*
X170765629Y-124674563D01*
X170792867Y-124703713D01*
X170884804Y-124840272D01*
X171045532Y-125008758D01*
X171232350Y-125147754D01*
X171237102Y-125150170D01*
X171434244Y-125250402D01*
X171439916Y-125253286D01*
X171551106Y-125287812D01*
X171657193Y-125320753D01*
X171657199Y-125320754D01*
X171662296Y-125322337D01*
X171786660Y-125338820D01*
X171887848Y-125352232D01*
X171887852Y-125352232D01*
X171893132Y-125352932D01*
X171898462Y-125352732D01*
X171898463Y-125352732D01*
X172009477Y-125348564D01*
X172125822Y-125344197D01*
X172290713Y-125309599D01*
X172348486Y-125297477D01*
X172348489Y-125297476D01*
X172353713Y-125296380D01*
X172570290Y-125210850D01*
X172769359Y-125090051D01*
X172867492Y-125004896D01*
X172941197Y-124940939D01*
X172941199Y-124940937D01*
X172945230Y-124937439D01*
X172948613Y-124933313D01*
X172948617Y-124933309D01*
X173089487Y-124761504D01*
X173092872Y-124757376D01*
X173095672Y-124752458D01*
X173118845Y-124711748D01*
X173169927Y-124662442D01*
X173239558Y-124648580D01*
X173305629Y-124674563D01*
X173332867Y-124703713D01*
X173424804Y-124840272D01*
X173585532Y-125008758D01*
X173772350Y-125147754D01*
X173777102Y-125150170D01*
X173974244Y-125250402D01*
X173979916Y-125253286D01*
X174091106Y-125287812D01*
X174197193Y-125320753D01*
X174197199Y-125320754D01*
X174202296Y-125322337D01*
X174326660Y-125338820D01*
X174427848Y-125352232D01*
X174427852Y-125352232D01*
X174433132Y-125352932D01*
X174438462Y-125352732D01*
X174438463Y-125352732D01*
X174549477Y-125348564D01*
X174665822Y-125344197D01*
X174830713Y-125309599D01*
X174888486Y-125297477D01*
X174888489Y-125297476D01*
X174893713Y-125296380D01*
X175110290Y-125210850D01*
X175309359Y-125090051D01*
X175407492Y-125004896D01*
X175481197Y-124940939D01*
X175481199Y-124940937D01*
X175485230Y-124937439D01*
X175488613Y-124933313D01*
X175488617Y-124933309D01*
X175629487Y-124761504D01*
X175632872Y-124757376D01*
X175635672Y-124752458D01*
X175745422Y-124559654D01*
X175748065Y-124555011D01*
X175768239Y-124499435D01*
X175825695Y-124341146D01*
X175825696Y-124341142D01*
X175827515Y-124336131D01*
X175868950Y-124106993D01*
X175869632Y-124092548D01*
X175870030Y-124084095D01*
X175870030Y-124084086D01*
X175870100Y-124082606D01*
X175870100Y-123614132D01*
X175855374Y-123440580D01*
X175854035Y-123435420D01*
X175798217Y-123220363D01*
X175798216Y-123220359D01*
X175796875Y-123215194D01*
X175701238Y-123002887D01*
X175571196Y-122809728D01*
X175410468Y-122641242D01*
X175223650Y-122502246D01*
X175096574Y-122437637D01*
X175020842Y-122399133D01*
X175020841Y-122399133D01*
X175016084Y-122396714D01*
X174877299Y-122353620D01*
X174798807Y-122329247D01*
X174798801Y-122329246D01*
X174793704Y-122327663D01*
X174669340Y-122311180D01*
X174568152Y-122297768D01*
X174568148Y-122297768D01*
X174562868Y-122297068D01*
X174557538Y-122297268D01*
X174557537Y-122297268D01*
X174446523Y-122301435D01*
X174330178Y-122305803D01*
X174247474Y-122323156D01*
X174107514Y-122352523D01*
X174107511Y-122352524D01*
X174102287Y-122353620D01*
X173885710Y-122439150D01*
X173686641Y-122559949D01*
X173682611Y-122563446D01*
X173588075Y-122645480D01*
X173510770Y-122712561D01*
X173507387Y-122716687D01*
X173507383Y-122716691D01*
X173434262Y-122805869D01*
X173363128Y-122892624D01*
X173360490Y-122897259D01*
X173360487Y-122897263D01*
X173337155Y-122938252D01*
X173286073Y-122987558D01*
X173216442Y-123001420D01*
X173150371Y-122975437D01*
X173123133Y-122946287D01*
X173034388Y-122814470D01*
X173031196Y-122809728D01*
X172870468Y-122641242D01*
X172683650Y-122502246D01*
X172556574Y-122437637D01*
X172480842Y-122399133D01*
X172480841Y-122399133D01*
X172476084Y-122396714D01*
X172337299Y-122353620D01*
X172258807Y-122329247D01*
X172258801Y-122329246D01*
X172253704Y-122327663D01*
X172129340Y-122311180D01*
X172028152Y-122297768D01*
X172028148Y-122297768D01*
X172022868Y-122297068D01*
X172017538Y-122297268D01*
X172017537Y-122297268D01*
X171906523Y-122301435D01*
X171790178Y-122305803D01*
X171707474Y-122323156D01*
X171567514Y-122352523D01*
X171567511Y-122352524D01*
X171562287Y-122353620D01*
X171345710Y-122439150D01*
X171146641Y-122559949D01*
X171142611Y-122563446D01*
X171048075Y-122645480D01*
X170970770Y-122712561D01*
X170967387Y-122716687D01*
X170967383Y-122716691D01*
X170894262Y-122805869D01*
X170823128Y-122892624D01*
X170820490Y-122897259D01*
X170820487Y-122897263D01*
X170797155Y-122938252D01*
X170746073Y-122987558D01*
X170676442Y-123001420D01*
X170610371Y-122975437D01*
X170583133Y-122946287D01*
X170494388Y-122814470D01*
X170491196Y-122809728D01*
X170330468Y-122641242D01*
X170143650Y-122502246D01*
X170016574Y-122437637D01*
X169940842Y-122399133D01*
X169940841Y-122399133D01*
X169936084Y-122396714D01*
X169797299Y-122353620D01*
X169718807Y-122329247D01*
X169718801Y-122329246D01*
X169713704Y-122327663D01*
X169589340Y-122311180D01*
X169488152Y-122297768D01*
X169488148Y-122297768D01*
X169482868Y-122297068D01*
X169477538Y-122297268D01*
X169477537Y-122297268D01*
X169366523Y-122301435D01*
X169250178Y-122305803D01*
X169167474Y-122323156D01*
X169027514Y-122352523D01*
X169027511Y-122352524D01*
X169022287Y-122353620D01*
X168805710Y-122439150D01*
X168606641Y-122559949D01*
X168602611Y-122563446D01*
X168508075Y-122645480D01*
X168430770Y-122712561D01*
X168427387Y-122716687D01*
X168427383Y-122716691D01*
X168354262Y-122805869D01*
X168283128Y-122892624D01*
X168280490Y-122897259D01*
X168280487Y-122897263D01*
X168257155Y-122938252D01*
X168206073Y-122987558D01*
X168136442Y-123001420D01*
X168070371Y-122975437D01*
X168043133Y-122946287D01*
X167954388Y-122814470D01*
X167951196Y-122809728D01*
X167790468Y-122641242D01*
X167603650Y-122502246D01*
X167476574Y-122437637D01*
X167400842Y-122399133D01*
X167400841Y-122399133D01*
X167396084Y-122396714D01*
X167257299Y-122353620D01*
X167178807Y-122329247D01*
X167178801Y-122329246D01*
X167173704Y-122327663D01*
X167049340Y-122311180D01*
X166948152Y-122297768D01*
X166948148Y-122297768D01*
X166942868Y-122297068D01*
X166937538Y-122297268D01*
X166937537Y-122297268D01*
X166826523Y-122301435D01*
X166710178Y-122305803D01*
X166627474Y-122323156D01*
X166487514Y-122352523D01*
X166487511Y-122352524D01*
X166482287Y-122353620D01*
X166265710Y-122439150D01*
X166066641Y-122559949D01*
X166062611Y-122563446D01*
X165968075Y-122645480D01*
X165890770Y-122712561D01*
X165887387Y-122716687D01*
X165887383Y-122716691D01*
X165814262Y-122805869D01*
X165743128Y-122892624D01*
X165740490Y-122897259D01*
X165740487Y-122897263D01*
X165717155Y-122938252D01*
X165666073Y-122987558D01*
X165596442Y-123001420D01*
X165530371Y-122975437D01*
X165503133Y-122946287D01*
X165414388Y-122814470D01*
X165411196Y-122809728D01*
X165250468Y-122641242D01*
X165063650Y-122502246D01*
X164936574Y-122437637D01*
X164860842Y-122399133D01*
X164860841Y-122399133D01*
X164856084Y-122396714D01*
X164717299Y-122353620D01*
X164638807Y-122329247D01*
X164638801Y-122329246D01*
X164633704Y-122327663D01*
X164509340Y-122311180D01*
X164408152Y-122297768D01*
X164408148Y-122297768D01*
X164402868Y-122297068D01*
X164397538Y-122297268D01*
X164397537Y-122297268D01*
X164286523Y-122301435D01*
X164170178Y-122305803D01*
X164087474Y-122323156D01*
X163947514Y-122352523D01*
X163947511Y-122352524D01*
X163942287Y-122353620D01*
X163725710Y-122439150D01*
X163526641Y-122559949D01*
X163522611Y-122563446D01*
X163428075Y-122645480D01*
X163350770Y-122712561D01*
X163347387Y-122716687D01*
X163347383Y-122716691D01*
X163274262Y-122805869D01*
X163203128Y-122892624D01*
X163200490Y-122897259D01*
X163200487Y-122897263D01*
X163177155Y-122938252D01*
X163126073Y-122987558D01*
X163056442Y-123001420D01*
X162990371Y-122975437D01*
X162963133Y-122946287D01*
X162874388Y-122814470D01*
X162871196Y-122809728D01*
X162710468Y-122641242D01*
X162523650Y-122502246D01*
X162396574Y-122437637D01*
X162320842Y-122399133D01*
X162320841Y-122399133D01*
X162316084Y-122396714D01*
X162177299Y-122353620D01*
X162098807Y-122329247D01*
X162098801Y-122329246D01*
X162093704Y-122327663D01*
X161969340Y-122311180D01*
X161868152Y-122297768D01*
X161868148Y-122297768D01*
X161862868Y-122297068D01*
X161857538Y-122297268D01*
X161857537Y-122297268D01*
X161746523Y-122301435D01*
X161630178Y-122305803D01*
X161547474Y-122323156D01*
X161407514Y-122352523D01*
X161407511Y-122352524D01*
X161402287Y-122353620D01*
X161185710Y-122439150D01*
X160986641Y-122559949D01*
X160982611Y-122563446D01*
X160888075Y-122645480D01*
X160810770Y-122712561D01*
X160807387Y-122716687D01*
X160807383Y-122716691D01*
X160734262Y-122805869D01*
X160663128Y-122892624D01*
X160660490Y-122897259D01*
X160660487Y-122897263D01*
X160597589Y-123007760D01*
X160547935Y-123094989D01*
X160546114Y-123100005D01*
X160546112Y-123100010D01*
X160504302Y-123215194D01*
X160468485Y-123313869D01*
X160427050Y-123543007D01*
X160426855Y-123547146D01*
X160426854Y-123547153D01*
X160425970Y-123565905D01*
X160425900Y-123567394D01*
X160425900Y-124035868D01*
X158090100Y-124035868D01*
X158090100Y-123614132D01*
X158075374Y-123440580D01*
X158074035Y-123435420D01*
X158018217Y-123220363D01*
X158018216Y-123220359D01*
X158016875Y-123215194D01*
X157921238Y-123002887D01*
X157791196Y-122809728D01*
X157630468Y-122641242D01*
X157443650Y-122502246D01*
X157316574Y-122437637D01*
X157240842Y-122399133D01*
X157240841Y-122399133D01*
X157236084Y-122396714D01*
X157097299Y-122353620D01*
X157018807Y-122329247D01*
X157018801Y-122329246D01*
X157013704Y-122327663D01*
X156889340Y-122311180D01*
X156788152Y-122297768D01*
X156788148Y-122297768D01*
X156782868Y-122297068D01*
X156777538Y-122297268D01*
X156777537Y-122297268D01*
X156666523Y-122301435D01*
X156550178Y-122305803D01*
X156467474Y-122323156D01*
X156327514Y-122352523D01*
X156327511Y-122352524D01*
X156322287Y-122353620D01*
X156105710Y-122439150D01*
X155906641Y-122559949D01*
X155902611Y-122563446D01*
X155808075Y-122645480D01*
X155730770Y-122712561D01*
X155727387Y-122716687D01*
X155727383Y-122716691D01*
X155654262Y-122805869D01*
X155583128Y-122892624D01*
X155556878Y-122938739D01*
X155505798Y-122988044D01*
X155436168Y-123001906D01*
X155370096Y-122975923D01*
X155342857Y-122946773D01*
X155253785Y-122814470D01*
X155247124Y-122806184D01*
X155093820Y-122645480D01*
X155085852Y-122638431D01*
X154907664Y-122505856D01*
X154898634Y-122500257D01*
X154700653Y-122399598D01*
X154690792Y-122395595D01*
X154478699Y-122329737D01*
X154468304Y-122327452D01*
X154449959Y-122325020D01*
X154435792Y-122327217D01*
X154432000Y-122340401D01*
X154432000Y-125307488D01*
X153924000Y-125307488D01*
X153924000Y-124097115D01*
X153919525Y-124081876D01*
X153918135Y-124080671D01*
X153910452Y-124079000D01*
X151910115Y-124079000D01*
X151894876Y-124083475D01*
X151893671Y-124084865D01*
X151892000Y-124092548D01*
X151892000Y-125307488D01*
X151384000Y-125307488D01*
X151384000Y-123552885D01*
X151892000Y-123552885D01*
X151896475Y-123568124D01*
X151897865Y-123569329D01*
X151905548Y-123571000D01*
X153905885Y-123571000D01*
X153921124Y-123566525D01*
X153922329Y-123565135D01*
X153924000Y-123557452D01*
X153924000Y-122342512D01*
X153920027Y-122328981D01*
X153909420Y-122327456D01*
X153787657Y-122353004D01*
X153777461Y-122356064D01*
X153570903Y-122437637D01*
X153561366Y-122442371D01*
X153371497Y-122557586D01*
X153362907Y-122563850D01*
X153195163Y-122709411D01*
X153187743Y-122717041D01*
X153046927Y-122888780D01*
X153040905Y-122897542D01*
X153017190Y-122939202D01*
X152966107Y-122988508D01*
X152896476Y-123002369D01*
X152830406Y-122976385D01*
X152803168Y-122947236D01*
X152713785Y-122814469D01*
X152707124Y-122806184D01*
X152553820Y-122645480D01*
X152545852Y-122638431D01*
X152367664Y-122505856D01*
X152358634Y-122500257D01*
X152160653Y-122399598D01*
X152150792Y-122395595D01*
X151938699Y-122329737D01*
X151928304Y-122327452D01*
X151909959Y-122325020D01*
X151895792Y-122327217D01*
X151892000Y-122340401D01*
X151892000Y-123552885D01*
X151384000Y-123552885D01*
X151384000Y-122342512D01*
X151380027Y-122328981D01*
X151369420Y-122327456D01*
X151247657Y-122353004D01*
X151237461Y-122356064D01*
X151030903Y-122437637D01*
X151021366Y-122442371D01*
X150831497Y-122557586D01*
X150822907Y-122563850D01*
X150655163Y-122709411D01*
X150647743Y-122717041D01*
X150506927Y-122888780D01*
X150500898Y-122897551D01*
X150477467Y-122938715D01*
X150426385Y-122988022D01*
X150356755Y-123001884D01*
X150290684Y-122975901D01*
X150263445Y-122946751D01*
X150224417Y-122888780D01*
X150171196Y-122809728D01*
X150010468Y-122641242D01*
X149823650Y-122502246D01*
X149696574Y-122437637D01*
X149620842Y-122399133D01*
X149620841Y-122399133D01*
X149616084Y-122396714D01*
X149477299Y-122353620D01*
X149398807Y-122329247D01*
X149398801Y-122329246D01*
X149393704Y-122327663D01*
X149269340Y-122311180D01*
X149168152Y-122297768D01*
X149168148Y-122297768D01*
X149162868Y-122297068D01*
X149157538Y-122297268D01*
X149157537Y-122297268D01*
X149046523Y-122301435D01*
X148930178Y-122305803D01*
X148847474Y-122323156D01*
X148707514Y-122352523D01*
X148707511Y-122352524D01*
X148702287Y-122353620D01*
X148485710Y-122439150D01*
X148286641Y-122559949D01*
X148282611Y-122563446D01*
X148188075Y-122645480D01*
X148110770Y-122712561D01*
X148107387Y-122716687D01*
X148107383Y-122716691D01*
X148034262Y-122805869D01*
X147963128Y-122892624D01*
X147960490Y-122897259D01*
X147960487Y-122897263D01*
X147937155Y-122938252D01*
X147886073Y-122987558D01*
X147816442Y-123001420D01*
X147750371Y-122975437D01*
X147723133Y-122946287D01*
X147634388Y-122814470D01*
X147631196Y-122809728D01*
X147470468Y-122641242D01*
X147283650Y-122502246D01*
X147156574Y-122437637D01*
X147080842Y-122399133D01*
X147080841Y-122399133D01*
X147076084Y-122396714D01*
X146937299Y-122353620D01*
X146858807Y-122329247D01*
X146858801Y-122329246D01*
X146853704Y-122327663D01*
X146729340Y-122311180D01*
X146628152Y-122297768D01*
X146628148Y-122297768D01*
X146622868Y-122297068D01*
X146617538Y-122297268D01*
X146617537Y-122297268D01*
X146506523Y-122301435D01*
X146390178Y-122305803D01*
X146307474Y-122323156D01*
X146167514Y-122352523D01*
X146167511Y-122352524D01*
X146162287Y-122353620D01*
X145945710Y-122439150D01*
X145746641Y-122559949D01*
X145742611Y-122563446D01*
X145648075Y-122645480D01*
X145570770Y-122712561D01*
X145567387Y-122716687D01*
X145567383Y-122716691D01*
X145494262Y-122805869D01*
X145423128Y-122892624D01*
X145420490Y-122897259D01*
X145420487Y-122897263D01*
X145397155Y-122938252D01*
X145346073Y-122987558D01*
X145276442Y-123001420D01*
X145210371Y-122975437D01*
X145183133Y-122946287D01*
X145094388Y-122814470D01*
X145091196Y-122809728D01*
X144930468Y-122641242D01*
X144743650Y-122502246D01*
X144616574Y-122437637D01*
X144540842Y-122399133D01*
X144540841Y-122399133D01*
X144536084Y-122396714D01*
X144397299Y-122353620D01*
X144318807Y-122329247D01*
X144318801Y-122329246D01*
X144313704Y-122327663D01*
X144189340Y-122311180D01*
X144088152Y-122297768D01*
X144088148Y-122297768D01*
X144082868Y-122297068D01*
X144077538Y-122297268D01*
X144077537Y-122297268D01*
X143966523Y-122301435D01*
X143850178Y-122305803D01*
X143767474Y-122323156D01*
X143627514Y-122352523D01*
X143627511Y-122352524D01*
X143622287Y-122353620D01*
X143405710Y-122439150D01*
X143206641Y-122559949D01*
X143202611Y-122563446D01*
X143108075Y-122645480D01*
X143030770Y-122712561D01*
X143027387Y-122716687D01*
X143027383Y-122716691D01*
X142954262Y-122805869D01*
X142883128Y-122892624D01*
X142880490Y-122897259D01*
X142880487Y-122897263D01*
X142857155Y-122938252D01*
X142806073Y-122987558D01*
X142736442Y-123001420D01*
X142670371Y-122975437D01*
X142643133Y-122946287D01*
X142554388Y-122814470D01*
X142551196Y-122809728D01*
X142390468Y-122641242D01*
X142203650Y-122502246D01*
X142076574Y-122437637D01*
X142000842Y-122399133D01*
X142000841Y-122399133D01*
X141996084Y-122396714D01*
X141857299Y-122353620D01*
X141778807Y-122329247D01*
X141778801Y-122329246D01*
X141773704Y-122327663D01*
X141649340Y-122311180D01*
X141548152Y-122297768D01*
X141548148Y-122297768D01*
X141542868Y-122297068D01*
X141537538Y-122297268D01*
X141537537Y-122297268D01*
X141426523Y-122301435D01*
X141310178Y-122305803D01*
X141227474Y-122323156D01*
X141087514Y-122352523D01*
X141087511Y-122352524D01*
X141082287Y-122353620D01*
X140865710Y-122439150D01*
X140666641Y-122559949D01*
X140662611Y-122563446D01*
X140568075Y-122645480D01*
X140490770Y-122712561D01*
X140487387Y-122716687D01*
X140487383Y-122716691D01*
X140414262Y-122805869D01*
X140343128Y-122892624D01*
X140340490Y-122897259D01*
X140340487Y-122897263D01*
X140317155Y-122938252D01*
X140266073Y-122987558D01*
X140196442Y-123001420D01*
X140130371Y-122975437D01*
X140103133Y-122946287D01*
X140014388Y-122814470D01*
X140011196Y-122809728D01*
X139850468Y-122641242D01*
X139663650Y-122502246D01*
X139536574Y-122437637D01*
X139460842Y-122399133D01*
X139460841Y-122399133D01*
X139456084Y-122396714D01*
X139317299Y-122353620D01*
X139238807Y-122329247D01*
X139238801Y-122329246D01*
X139233704Y-122327663D01*
X139109340Y-122311180D01*
X139008152Y-122297768D01*
X139008148Y-122297768D01*
X139002868Y-122297068D01*
X138997538Y-122297268D01*
X138997537Y-122297268D01*
X138886523Y-122301435D01*
X138770178Y-122305803D01*
X138687474Y-122323156D01*
X138547514Y-122352523D01*
X138547511Y-122352524D01*
X138542287Y-122353620D01*
X138325710Y-122439150D01*
X138126641Y-122559949D01*
X138122611Y-122563446D01*
X138028075Y-122645480D01*
X137950770Y-122712561D01*
X137947387Y-122716687D01*
X137947383Y-122716691D01*
X137874262Y-122805869D01*
X137803128Y-122892624D01*
X137800490Y-122897259D01*
X137800487Y-122897263D01*
X137737589Y-123007760D01*
X137687935Y-123094989D01*
X137686114Y-123100005D01*
X137686112Y-123100010D01*
X137644302Y-123215194D01*
X137608485Y-123313869D01*
X137567050Y-123543007D01*
X137566855Y-123547146D01*
X137566854Y-123547153D01*
X137565970Y-123565905D01*
X137565900Y-123567394D01*
X137565900Y-124035868D01*
X126746000Y-124035868D01*
X126746000Y-75775868D01*
X128421900Y-75775868D01*
X128436626Y-75949420D01*
X128437964Y-75954577D01*
X128437965Y-75954580D01*
X128470816Y-76081146D01*
X128495125Y-76174806D01*
X128590762Y-76387113D01*
X128720804Y-76580272D01*
X128881532Y-76748758D01*
X129068350Y-76887754D01*
X129073102Y-76890170D01*
X129270244Y-76990402D01*
X129275916Y-76993286D01*
X129348613Y-77015859D01*
X129493193Y-77060753D01*
X129493199Y-77060754D01*
X129498296Y-77062337D01*
X129622660Y-77078820D01*
X129723848Y-77092232D01*
X129723852Y-77092232D01*
X129729132Y-77092932D01*
X129734462Y-77092732D01*
X129734463Y-77092732D01*
X129845477Y-77088564D01*
X129961822Y-77084197D01*
X130126713Y-77049599D01*
X130184486Y-77037477D01*
X130184489Y-77037476D01*
X130189713Y-77036380D01*
X130241676Y-77015859D01*
X130312382Y-77009441D01*
X130377052Y-77043956D01*
X134370348Y-81037253D01*
X134377888Y-81045539D01*
X134382000Y-81052018D01*
X134387777Y-81057443D01*
X134431651Y-81098643D01*
X134434493Y-81101398D01*
X134454230Y-81121135D01*
X134457427Y-81123615D01*
X134466447Y-81131318D01*
X134498679Y-81161586D01*
X134505625Y-81165405D01*
X134505628Y-81165407D01*
X134516434Y-81171348D01*
X134532953Y-81182199D01*
X134548959Y-81194614D01*
X134556228Y-81197759D01*
X134556232Y-81197762D01*
X134589537Y-81212174D01*
X134600187Y-81217391D01*
X134638940Y-81238695D01*
X134646615Y-81240666D01*
X134646616Y-81240666D01*
X134658562Y-81243733D01*
X134677267Y-81250137D01*
X134695855Y-81258181D01*
X134703678Y-81259420D01*
X134703688Y-81259423D01*
X134739524Y-81265099D01*
X134751144Y-81267505D01*
X134786289Y-81276528D01*
X134793970Y-81278500D01*
X134814224Y-81278500D01*
X134833934Y-81280051D01*
X134853943Y-81283220D01*
X134861835Y-81282474D01*
X134897961Y-81279059D01*
X134909819Y-81278500D01*
X135122274Y-81278500D01*
X135190395Y-81298502D01*
X135229707Y-81338665D01*
X135297987Y-81450088D01*
X135444250Y-81618938D01*
X135616126Y-81761632D01*
X135809000Y-81874338D01*
X136017692Y-81954030D01*
X136022760Y-81955061D01*
X136022763Y-81955062D01*
X136130017Y-81976883D01*
X136236597Y-81998567D01*
X136241772Y-81998757D01*
X136241774Y-81998757D01*
X136454673Y-82006564D01*
X136454677Y-82006564D01*
X136459837Y-82006753D01*
X136464957Y-82006097D01*
X136464959Y-82006097D01*
X136676288Y-81979025D01*
X136676289Y-81979025D01*
X136681416Y-81978368D01*
X136686366Y-81976883D01*
X136890429Y-81915661D01*
X136890434Y-81915659D01*
X136895384Y-81914174D01*
X137095994Y-81815896D01*
X137277860Y-81686173D01*
X137436096Y-81528489D01*
X137566453Y-81347077D01*
X137567776Y-81348028D01*
X137614645Y-81304857D01*
X137684580Y-81292625D01*
X137750026Y-81320144D01*
X137777875Y-81351994D01*
X137837987Y-81450088D01*
X137984250Y-81618938D01*
X138156126Y-81761632D01*
X138349000Y-81874338D01*
X138557692Y-81954030D01*
X138562760Y-81955061D01*
X138562763Y-81955062D01*
X138670017Y-81976883D01*
X138776597Y-81998567D01*
X138781772Y-81998757D01*
X138781774Y-81998757D01*
X138994673Y-82006564D01*
X138994677Y-82006564D01*
X138999837Y-82006753D01*
X139004957Y-82006097D01*
X139004959Y-82006097D01*
X139216288Y-81979025D01*
X139216289Y-81979025D01*
X139221416Y-81978368D01*
X139226366Y-81976883D01*
X139430429Y-81915661D01*
X139430434Y-81915659D01*
X139435384Y-81914174D01*
X139635994Y-81815896D01*
X139817860Y-81686173D01*
X139976096Y-81528489D01*
X140106453Y-81347077D01*
X140107776Y-81348028D01*
X140154645Y-81304857D01*
X140224580Y-81292625D01*
X140290026Y-81320144D01*
X140317875Y-81351994D01*
X140377987Y-81450088D01*
X140524250Y-81618938D01*
X140696126Y-81761632D01*
X140889000Y-81874338D01*
X141097692Y-81954030D01*
X141102760Y-81955061D01*
X141102763Y-81955062D01*
X141210017Y-81976883D01*
X141316597Y-81998567D01*
X141321772Y-81998757D01*
X141321774Y-81998757D01*
X141534673Y-82006564D01*
X141534677Y-82006564D01*
X141539837Y-82006753D01*
X141544957Y-82006097D01*
X141544959Y-82006097D01*
X141756288Y-81979025D01*
X141756289Y-81979025D01*
X141761416Y-81978368D01*
X141766366Y-81976883D01*
X141970429Y-81915661D01*
X141970434Y-81915659D01*
X141975384Y-81914174D01*
X142175994Y-81815896D01*
X142357860Y-81686173D01*
X142425331Y-81618938D01*
X142466479Y-81577933D01*
X142528851Y-81544017D01*
X142599658Y-81549205D01*
X142656419Y-81591851D01*
X142673401Y-81622954D01*
X142714676Y-81733054D01*
X142723214Y-81748649D01*
X142799715Y-81850724D01*
X142812276Y-81863285D01*
X142914351Y-81939786D01*
X142929946Y-81948324D01*
X143050394Y-81993478D01*
X143065649Y-81997105D01*
X143116514Y-82002631D01*
X143123328Y-82003000D01*
X143745885Y-82003000D01*
X143761124Y-81998525D01*
X143762329Y-81997135D01*
X143764000Y-81989452D01*
X143764000Y-81984884D01*
X144272000Y-81984884D01*
X144276475Y-82000123D01*
X144277865Y-82001328D01*
X144285548Y-82002999D01*
X144912669Y-82002999D01*
X144919490Y-82002629D01*
X144970352Y-81997105D01*
X144985604Y-81993479D01*
X145106054Y-81948324D01*
X145121649Y-81939786D01*
X145223724Y-81863285D01*
X145236285Y-81850724D01*
X145312786Y-81748649D01*
X145321324Y-81733054D01*
X145366478Y-81612606D01*
X145370105Y-81597351D01*
X145375631Y-81546486D01*
X145376000Y-81539672D01*
X145376000Y-80917115D01*
X145371525Y-80901876D01*
X145370135Y-80900671D01*
X145362452Y-80899000D01*
X144290115Y-80899000D01*
X144274876Y-80903475D01*
X144273671Y-80904865D01*
X144272000Y-80912548D01*
X144272000Y-81984884D01*
X143764000Y-81984884D01*
X143764000Y-80372885D01*
X144272000Y-80372885D01*
X144276475Y-80388124D01*
X144277865Y-80389329D01*
X144285548Y-80391000D01*
X145357884Y-80391000D01*
X145373123Y-80386525D01*
X145374328Y-80385135D01*
X145375999Y-80377452D01*
X145375999Y-79750331D01*
X145375629Y-79743510D01*
X145370105Y-79692648D01*
X145366479Y-79677396D01*
X145321324Y-79556946D01*
X145312786Y-79541351D01*
X145236285Y-79439276D01*
X145223724Y-79426715D01*
X145121649Y-79350214D01*
X145106054Y-79341676D01*
X144985606Y-79296522D01*
X144970351Y-79292895D01*
X144919486Y-79287369D01*
X144912672Y-79287000D01*
X144290115Y-79287000D01*
X144274876Y-79291475D01*
X144273671Y-79292865D01*
X144272000Y-79300548D01*
X144272000Y-80372885D01*
X143764000Y-80372885D01*
X143764000Y-79305116D01*
X143759525Y-79289877D01*
X143758135Y-79288672D01*
X143750452Y-79287001D01*
X143123331Y-79287001D01*
X143116510Y-79287371D01*
X143065648Y-79292895D01*
X143050396Y-79296521D01*
X142929946Y-79341676D01*
X142914351Y-79350214D01*
X142812276Y-79426715D01*
X142799715Y-79439276D01*
X142723214Y-79541351D01*
X142714676Y-79556946D01*
X142673297Y-79667322D01*
X142630655Y-79724087D01*
X142564093Y-79748786D01*
X142494744Y-79733578D01*
X142462121Y-79707891D01*
X142411151Y-79651876D01*
X142411145Y-79651870D01*
X142407670Y-79648051D01*
X142403619Y-79644852D01*
X142403615Y-79644848D01*
X142236414Y-79512800D01*
X142236410Y-79512798D01*
X142232359Y-79509598D01*
X142036789Y-79401638D01*
X142031920Y-79399914D01*
X142031916Y-79399912D01*
X141831087Y-79328795D01*
X141831083Y-79328794D01*
X141826212Y-79327069D01*
X141821119Y-79326162D01*
X141821116Y-79326161D01*
X141611373Y-79288800D01*
X141611367Y-79288799D01*
X141606284Y-79287894D01*
X141532452Y-79286992D01*
X141388081Y-79285228D01*
X141388079Y-79285228D01*
X141382911Y-79285165D01*
X141162091Y-79318955D01*
X140949756Y-79388357D01*
X140751607Y-79491507D01*
X140747474Y-79494610D01*
X140747471Y-79494612D01*
X140664450Y-79556946D01*
X140572965Y-79625635D01*
X140418629Y-79787138D01*
X140311201Y-79944621D01*
X140256293Y-79989621D01*
X140185768Y-79997792D01*
X140122021Y-79966538D01*
X140101324Y-79942054D01*
X140020822Y-79817617D01*
X140020820Y-79817614D01*
X140018014Y-79813277D01*
X139867670Y-79648051D01*
X139863619Y-79644852D01*
X139863615Y-79644848D01*
X139696414Y-79512800D01*
X139696410Y-79512798D01*
X139692359Y-79509598D01*
X139496789Y-79401638D01*
X139491920Y-79399914D01*
X139491916Y-79399912D01*
X139291087Y-79328795D01*
X139291083Y-79328794D01*
X139286212Y-79327069D01*
X139281119Y-79326162D01*
X139281116Y-79326161D01*
X139071373Y-79288800D01*
X139071367Y-79288799D01*
X139066284Y-79287894D01*
X138992452Y-79286992D01*
X138848081Y-79285228D01*
X138848079Y-79285228D01*
X138842911Y-79285165D01*
X138622091Y-79318955D01*
X138609532Y-79323060D01*
X138538568Y-79325210D01*
X138481294Y-79292389D01*
X137595147Y-78406242D01*
X137587607Y-78397956D01*
X137583495Y-78391477D01*
X137533843Y-78344851D01*
X137531002Y-78342097D01*
X137511265Y-78322360D01*
X137508068Y-78319880D01*
X137499046Y-78312175D01*
X137472595Y-78287336D01*
X137466816Y-78281909D01*
X137459870Y-78278090D01*
X137459867Y-78278088D01*
X137449061Y-78272147D01*
X137432542Y-78261296D01*
X137432078Y-78260936D01*
X137416536Y-78248881D01*
X137409267Y-78245736D01*
X137409263Y-78245733D01*
X137375958Y-78231321D01*
X137365308Y-78226104D01*
X137326555Y-78204800D01*
X137306932Y-78199762D01*
X137288229Y-78193358D01*
X137276915Y-78188462D01*
X137276914Y-78188462D01*
X137269640Y-78185314D01*
X137261817Y-78184075D01*
X137261807Y-78184072D01*
X137225971Y-78178396D01*
X137214351Y-78175990D01*
X137179206Y-78166967D01*
X137179205Y-78166967D01*
X137171525Y-78164995D01*
X137151271Y-78164995D01*
X137131560Y-78163444D01*
X137119381Y-78161515D01*
X137111552Y-78160275D01*
X137103660Y-78161021D01*
X137067534Y-78164436D01*
X137055676Y-78164995D01*
X135882090Y-78164995D01*
X135813969Y-78144993D01*
X135792995Y-78128090D01*
X134963380Y-77298475D01*
X134929354Y-77236163D01*
X134934419Y-77165348D01*
X134976966Y-77108512D01*
X135036975Y-77084379D01*
X135041822Y-77084197D01*
X135206713Y-77049599D01*
X135264486Y-77037477D01*
X135264489Y-77037476D01*
X135269713Y-77036380D01*
X135486290Y-76950850D01*
X135685359Y-76830051D01*
X135783492Y-76744896D01*
X135857197Y-76680939D01*
X135857199Y-76680937D01*
X135861230Y-76677439D01*
X135864613Y-76673313D01*
X135864617Y-76673309D01*
X136005487Y-76501504D01*
X136008872Y-76497376D01*
X136035122Y-76451261D01*
X136086202Y-76401956D01*
X136155832Y-76388094D01*
X136221904Y-76414077D01*
X136249143Y-76443227D01*
X136338215Y-76575530D01*
X136344876Y-76583816D01*
X136498180Y-76744520D01*
X136506148Y-76751569D01*
X136684336Y-76884144D01*
X136693366Y-76889743D01*
X136891347Y-76990402D01*
X136901208Y-76994405D01*
X137113301Y-77060263D01*
X137123696Y-77062548D01*
X137142041Y-77064980D01*
X137156208Y-77062783D01*
X137160000Y-77049599D01*
X137160000Y-77047488D01*
X137668000Y-77047488D01*
X137671973Y-77061019D01*
X137682580Y-77062544D01*
X137804343Y-77036996D01*
X137814539Y-77033936D01*
X138021097Y-76952363D01*
X138030634Y-76947629D01*
X138220503Y-76832414D01*
X138229093Y-76826150D01*
X138396837Y-76680589D01*
X138404257Y-76672959D01*
X138545073Y-76501220D01*
X138551102Y-76492449D01*
X138574533Y-76451285D01*
X138625615Y-76401978D01*
X138695245Y-76388116D01*
X138761316Y-76414099D01*
X138788555Y-76443249D01*
X138880804Y-76580272D01*
X139041532Y-76748758D01*
X139228350Y-76887754D01*
X139233102Y-76890170D01*
X139430244Y-76990402D01*
X139435916Y-76993286D01*
X139508613Y-77015859D01*
X139653193Y-77060753D01*
X139653199Y-77060754D01*
X139658296Y-77062337D01*
X139782660Y-77078820D01*
X139883848Y-77092232D01*
X139883852Y-77092232D01*
X139889132Y-77092932D01*
X139894462Y-77092732D01*
X139894463Y-77092732D01*
X140005477Y-77088564D01*
X140121822Y-77084197D01*
X140286713Y-77049599D01*
X140344486Y-77037477D01*
X140344489Y-77037476D01*
X140349713Y-77036380D01*
X140566290Y-76950850D01*
X140765359Y-76830051D01*
X140863492Y-76744896D01*
X140937197Y-76680939D01*
X140937199Y-76680937D01*
X140941230Y-76677439D01*
X140944613Y-76673313D01*
X140944617Y-76673309D01*
X141085487Y-76501504D01*
X141088872Y-76497376D01*
X141114845Y-76451748D01*
X141165927Y-76402442D01*
X141235558Y-76388580D01*
X141301629Y-76414563D01*
X141328867Y-76443713D01*
X141420804Y-76580272D01*
X141581532Y-76748758D01*
X141768350Y-76887754D01*
X141773102Y-76890170D01*
X141970244Y-76990402D01*
X141975916Y-76993286D01*
X142048613Y-77015859D01*
X142193193Y-77060753D01*
X142193199Y-77060754D01*
X142198296Y-77062337D01*
X142322660Y-77078820D01*
X142423848Y-77092232D01*
X142423852Y-77092232D01*
X142429132Y-77092932D01*
X142434462Y-77092732D01*
X142434463Y-77092732D01*
X142545477Y-77088564D01*
X142661822Y-77084197D01*
X142826713Y-77049599D01*
X142884486Y-77037477D01*
X142884489Y-77037476D01*
X142889713Y-77036380D01*
X143106290Y-76950850D01*
X143305359Y-76830051D01*
X143403492Y-76744896D01*
X143477197Y-76680939D01*
X143477199Y-76680937D01*
X143481230Y-76677439D01*
X143484613Y-76673313D01*
X143484617Y-76673309D01*
X143625487Y-76501504D01*
X143628872Y-76497376D01*
X143654845Y-76451748D01*
X143705927Y-76402442D01*
X143775558Y-76388580D01*
X143841629Y-76414563D01*
X143868867Y-76443713D01*
X143960804Y-76580272D01*
X144121532Y-76748758D01*
X144308350Y-76887754D01*
X144313102Y-76890170D01*
X144510244Y-76990402D01*
X144515916Y-76993286D01*
X144588613Y-77015859D01*
X144733193Y-77060753D01*
X144733199Y-77060754D01*
X144738296Y-77062337D01*
X144862660Y-77078820D01*
X144963848Y-77092232D01*
X144963852Y-77092232D01*
X144969132Y-77092932D01*
X144974462Y-77092732D01*
X144974463Y-77092732D01*
X145085477Y-77088564D01*
X145201822Y-77084197D01*
X145366713Y-77049599D01*
X145424486Y-77037477D01*
X145424489Y-77037476D01*
X145429713Y-77036380D01*
X145646290Y-76950850D01*
X145845359Y-76830051D01*
X145943492Y-76744896D01*
X146017197Y-76680939D01*
X146017199Y-76680937D01*
X146021230Y-76677439D01*
X146024613Y-76673313D01*
X146024617Y-76673309D01*
X146165487Y-76501504D01*
X146168872Y-76497376D01*
X146194845Y-76451748D01*
X146245927Y-76402442D01*
X146315558Y-76388580D01*
X146381629Y-76414563D01*
X146408867Y-76443713D01*
X146500804Y-76580272D01*
X146661532Y-76748758D01*
X146848350Y-76887754D01*
X146871606Y-76899578D01*
X146923263Y-76948281D01*
X146940500Y-77011894D01*
X146940500Y-86662233D01*
X146939973Y-86673416D01*
X146938298Y-86680909D01*
X146938547Y-86688835D01*
X146938547Y-86688836D01*
X146940438Y-86748986D01*
X146940500Y-86752945D01*
X146940500Y-86780856D01*
X146940997Y-86784790D01*
X146940997Y-86784791D01*
X146941005Y-86784856D01*
X146941938Y-86796693D01*
X146943327Y-86840889D01*
X146948978Y-86860339D01*
X146952987Y-86879700D01*
X146955526Y-86899797D01*
X146958445Y-86907168D01*
X146958445Y-86907170D01*
X146971804Y-86940912D01*
X146975649Y-86952142D01*
X146987982Y-86994593D01*
X146992015Y-87001412D01*
X146992017Y-87001417D01*
X146998293Y-87012028D01*
X147006988Y-87029776D01*
X147014448Y-87048617D01*
X147019110Y-87055033D01*
X147019110Y-87055034D01*
X147040436Y-87084387D01*
X147046952Y-87094307D01*
X147058961Y-87114612D01*
X147069458Y-87132362D01*
X147083779Y-87146683D01*
X147096619Y-87161716D01*
X147108528Y-87178107D01*
X147114634Y-87183158D01*
X147142605Y-87206298D01*
X147151384Y-87214288D01*
X157413084Y-97475989D01*
X157447110Y-97538301D01*
X157449989Y-97565084D01*
X157449989Y-117260500D01*
X157429987Y-117328621D01*
X157376331Y-117375114D01*
X157323989Y-117386500D01*
X155819866Y-117386500D01*
X155757684Y-117393255D01*
X155621295Y-117444385D01*
X155504739Y-117531739D01*
X155417385Y-117648295D01*
X155366255Y-117784684D01*
X155359500Y-117846866D01*
X155359500Y-119643134D01*
X155366255Y-119705316D01*
X155417385Y-119841705D01*
X155504739Y-119958261D01*
X155621295Y-120045615D01*
X155757684Y-120096745D01*
X155819866Y-120103500D01*
X157616134Y-120103500D01*
X157678316Y-120096745D01*
X157814705Y-120045615D01*
X157834178Y-120031021D01*
X157900681Y-120006173D01*
X157970064Y-120021225D01*
X157998838Y-120042752D01*
X158267854Y-120311769D01*
X158275388Y-120320048D01*
X158279501Y-120326529D01*
X158300596Y-120346338D01*
X158329152Y-120373154D01*
X158331994Y-120375909D01*
X158351731Y-120395646D01*
X158354928Y-120398126D01*
X158363948Y-120405829D01*
X158396180Y-120436097D01*
X158403126Y-120439916D01*
X158403129Y-120439918D01*
X158413935Y-120445859D01*
X158430454Y-120456710D01*
X158446460Y-120469125D01*
X158453729Y-120472270D01*
X158453733Y-120472273D01*
X158487038Y-120486685D01*
X158497688Y-120491902D01*
X158536441Y-120513206D01*
X158544116Y-120515177D01*
X158544117Y-120515177D01*
X158556063Y-120518244D01*
X158574768Y-120524648D01*
X158593356Y-120532692D01*
X158601179Y-120533931D01*
X158601189Y-120533934D01*
X158637025Y-120539610D01*
X158648645Y-120542016D01*
X158680460Y-120550184D01*
X158691471Y-120553011D01*
X158711725Y-120553011D01*
X158731435Y-120554562D01*
X158751444Y-120557731D01*
X158759336Y-120556985D01*
X158778081Y-120555213D01*
X158795463Y-120553570D01*
X158807320Y-120553011D01*
X160544722Y-120553011D01*
X160555905Y-120553538D01*
X160563398Y-120555213D01*
X160571324Y-120554964D01*
X160571325Y-120554964D01*
X160631475Y-120553073D01*
X160635434Y-120553011D01*
X160663345Y-120553011D01*
X160667280Y-120552514D01*
X160667345Y-120552506D01*
X160679182Y-120551573D01*
X160711440Y-120550559D01*
X160715459Y-120550433D01*
X160723378Y-120550184D01*
X160742832Y-120544532D01*
X160762189Y-120540524D01*
X160774419Y-120538979D01*
X160774420Y-120538979D01*
X160782286Y-120537985D01*
X160789657Y-120535066D01*
X160789659Y-120535066D01*
X160823401Y-120521707D01*
X160834631Y-120517862D01*
X160869472Y-120507740D01*
X160869473Y-120507740D01*
X160877082Y-120505529D01*
X160883901Y-120501496D01*
X160883906Y-120501494D01*
X160894517Y-120495218D01*
X160912265Y-120486523D01*
X160931106Y-120479063D01*
X160966876Y-120453075D01*
X160976796Y-120446559D01*
X161008024Y-120428091D01*
X161008027Y-120428089D01*
X161014851Y-120424053D01*
X161029172Y-120409732D01*
X161044206Y-120396891D01*
X161054183Y-120389642D01*
X161060596Y-120384983D01*
X161088787Y-120350906D01*
X161096777Y-120342127D01*
X161342549Y-120096355D01*
X161404861Y-120062329D01*
X161456762Y-120061979D01*
X161636597Y-120098567D01*
X161641772Y-120098757D01*
X161641774Y-120098757D01*
X161854673Y-120106564D01*
X161854677Y-120106564D01*
X161859837Y-120106753D01*
X161864957Y-120106097D01*
X161864959Y-120106097D01*
X162076288Y-120079025D01*
X162076289Y-120079025D01*
X162081416Y-120078368D01*
X162086366Y-120076883D01*
X162290429Y-120015661D01*
X162290434Y-120015659D01*
X162295384Y-120014174D01*
X162495994Y-119915896D01*
X162677860Y-119786173D01*
X162836096Y-119628489D01*
X162966453Y-119447077D01*
X162967776Y-119448028D01*
X163014645Y-119404857D01*
X163084580Y-119392625D01*
X163150026Y-119420144D01*
X163177875Y-119451994D01*
X163237987Y-119550088D01*
X163384250Y-119718938D01*
X163556126Y-119861632D01*
X163749000Y-119974338D01*
X163957692Y-120054030D01*
X163962760Y-120055061D01*
X163962763Y-120055062D01*
X164057862Y-120074410D01*
X164176597Y-120098567D01*
X164181772Y-120098757D01*
X164181774Y-120098757D01*
X164394673Y-120106564D01*
X164394677Y-120106564D01*
X164399837Y-120106753D01*
X164404957Y-120106097D01*
X164404959Y-120106097D01*
X164616288Y-120079025D01*
X164616289Y-120079025D01*
X164621416Y-120078368D01*
X164626366Y-120076883D01*
X164830429Y-120015661D01*
X164830434Y-120015659D01*
X164835384Y-120014174D01*
X165035994Y-119915896D01*
X165217860Y-119786173D01*
X165376096Y-119628489D01*
X165506453Y-119447077D01*
X165507776Y-119448028D01*
X165554645Y-119404857D01*
X165624580Y-119392625D01*
X165690026Y-119420144D01*
X165717875Y-119451994D01*
X165777987Y-119550088D01*
X165924250Y-119718938D01*
X166096126Y-119861632D01*
X166289000Y-119974338D01*
X166497692Y-120054030D01*
X166502760Y-120055061D01*
X166502763Y-120055062D01*
X166597862Y-120074410D01*
X166716597Y-120098567D01*
X166721772Y-120098757D01*
X166721774Y-120098757D01*
X166934673Y-120106564D01*
X166934677Y-120106564D01*
X166939837Y-120106753D01*
X166944957Y-120106097D01*
X166944959Y-120106097D01*
X167156288Y-120079025D01*
X167156289Y-120079025D01*
X167161416Y-120078368D01*
X167166366Y-120076883D01*
X167370429Y-120015661D01*
X167370434Y-120015659D01*
X167375384Y-120014174D01*
X167575994Y-119915896D01*
X167757860Y-119786173D01*
X167916096Y-119628489D01*
X168046453Y-119447077D01*
X168047776Y-119448028D01*
X168094645Y-119404857D01*
X168164580Y-119392625D01*
X168230026Y-119420144D01*
X168257875Y-119451994D01*
X168317987Y-119550088D01*
X168464250Y-119718938D01*
X168636126Y-119861632D01*
X168829000Y-119974338D01*
X169037692Y-120054030D01*
X169042760Y-120055061D01*
X169042763Y-120055062D01*
X169137862Y-120074410D01*
X169256597Y-120098567D01*
X169261772Y-120098757D01*
X169261774Y-120098757D01*
X169474673Y-120106564D01*
X169474677Y-120106564D01*
X169479837Y-120106753D01*
X169484957Y-120106097D01*
X169484959Y-120106097D01*
X169696288Y-120079025D01*
X169696289Y-120079025D01*
X169701416Y-120078368D01*
X169706366Y-120076883D01*
X169910429Y-120015661D01*
X169910434Y-120015659D01*
X169915384Y-120014174D01*
X170115994Y-119915896D01*
X170297860Y-119786173D01*
X170456096Y-119628489D01*
X170586453Y-119447077D01*
X170587776Y-119448028D01*
X170634645Y-119404857D01*
X170704580Y-119392625D01*
X170770026Y-119420144D01*
X170797875Y-119451994D01*
X170857987Y-119550088D01*
X171004250Y-119718938D01*
X171176126Y-119861632D01*
X171369000Y-119974338D01*
X171577692Y-120054030D01*
X171582760Y-120055061D01*
X171582763Y-120055062D01*
X171677862Y-120074410D01*
X171796597Y-120098567D01*
X171801772Y-120098757D01*
X171801774Y-120098757D01*
X172014673Y-120106564D01*
X172014677Y-120106564D01*
X172019837Y-120106753D01*
X172024957Y-120106097D01*
X172024959Y-120106097D01*
X172236288Y-120079025D01*
X172236289Y-120079025D01*
X172241416Y-120078368D01*
X172246366Y-120076883D01*
X172450429Y-120015661D01*
X172450434Y-120015659D01*
X172455384Y-120014174D01*
X172655994Y-119915896D01*
X172837860Y-119786173D01*
X172996096Y-119628489D01*
X173126453Y-119447077D01*
X173127640Y-119447930D01*
X173174960Y-119404362D01*
X173244897Y-119392145D01*
X173310338Y-119419678D01*
X173338166Y-119451511D01*
X173395694Y-119545388D01*
X173401777Y-119553699D01*
X173541213Y-119714667D01*
X173548580Y-119721883D01*
X173712434Y-119857916D01*
X173720881Y-119863831D01*
X173904756Y-119971279D01*
X173914042Y-119975729D01*
X174113001Y-120051703D01*
X174122899Y-120054579D01*
X174226250Y-120075606D01*
X174240299Y-120074410D01*
X174244000Y-120064065D01*
X174244000Y-120063517D01*
X174752000Y-120063517D01*
X174756064Y-120077359D01*
X174769478Y-120079393D01*
X174776184Y-120078534D01*
X174786262Y-120076392D01*
X174990255Y-120015191D01*
X174999842Y-120011433D01*
X175191095Y-119917739D01*
X175199945Y-119912464D01*
X175373328Y-119788792D01*
X175381200Y-119782139D01*
X175532052Y-119631812D01*
X175538730Y-119623965D01*
X175663003Y-119451020D01*
X175668313Y-119442183D01*
X175762670Y-119251267D01*
X175766469Y-119241672D01*
X175828377Y-119037910D01*
X175830555Y-119027837D01*
X175831986Y-119016962D01*
X175829775Y-119002778D01*
X175816617Y-118999000D01*
X174770115Y-118999000D01*
X174754876Y-119003475D01*
X174753671Y-119004865D01*
X174752000Y-119012548D01*
X174752000Y-120063517D01*
X174244000Y-120063517D01*
X174244000Y-118472885D01*
X174752000Y-118472885D01*
X174756475Y-118488124D01*
X174757865Y-118489329D01*
X174765548Y-118491000D01*
X175816344Y-118491000D01*
X175829875Y-118487027D01*
X175831180Y-118477947D01*
X175789214Y-118310875D01*
X175785894Y-118301124D01*
X175700972Y-118105814D01*
X175696105Y-118096739D01*
X175580426Y-117917926D01*
X175574136Y-117909757D01*
X175430806Y-117752240D01*
X175423273Y-117745215D01*
X175256139Y-117613222D01*
X175247552Y-117607517D01*
X175061117Y-117504599D01*
X175051705Y-117500369D01*
X174850959Y-117429280D01*
X174840988Y-117426646D01*
X174769837Y-117413972D01*
X174756540Y-117415432D01*
X174752000Y-117429989D01*
X174752000Y-118472885D01*
X174244000Y-118472885D01*
X174244000Y-117428102D01*
X174240082Y-117414758D01*
X174225806Y-117412771D01*
X174187324Y-117418660D01*
X174177288Y-117421051D01*
X173974868Y-117487212D01*
X173965359Y-117491209D01*
X173776463Y-117589542D01*
X173767738Y-117595036D01*
X173597433Y-117722905D01*
X173589726Y-117729748D01*
X173442590Y-117883717D01*
X173436109Y-117891722D01*
X173331498Y-118045074D01*
X173276587Y-118090076D01*
X173206062Y-118098247D01*
X173142315Y-118066993D01*
X173121618Y-118042509D01*
X173040822Y-117917617D01*
X173040820Y-117917614D01*
X173038014Y-117913277D01*
X172887670Y-117748051D01*
X172883619Y-117744852D01*
X172883615Y-117744848D01*
X172716414Y-117612800D01*
X172716410Y-117612798D01*
X172712359Y-117609598D01*
X172707831Y-117607098D01*
X172656608Y-117578822D01*
X172516789Y-117501638D01*
X172511920Y-117499914D01*
X172511916Y-117499912D01*
X172311087Y-117428795D01*
X172311083Y-117428794D01*
X172306212Y-117427069D01*
X172301119Y-117426162D01*
X172301116Y-117426161D01*
X172091373Y-117388800D01*
X172091367Y-117388799D01*
X172086284Y-117387894D01*
X172012452Y-117386992D01*
X171868081Y-117385228D01*
X171868079Y-117385228D01*
X171862911Y-117385165D01*
X171642091Y-117418955D01*
X171429756Y-117488357D01*
X171356757Y-117526358D01*
X171255975Y-117578822D01*
X171231607Y-117591507D01*
X171227474Y-117594610D01*
X171227471Y-117594612D01*
X171057100Y-117722530D01*
X171052965Y-117725635D01*
X170898629Y-117887138D01*
X170791201Y-118044621D01*
X170736293Y-118089621D01*
X170665768Y-118097792D01*
X170602021Y-118066538D01*
X170581324Y-118042054D01*
X170500822Y-117917617D01*
X170500820Y-117917614D01*
X170498014Y-117913277D01*
X170347670Y-117748051D01*
X170343619Y-117744852D01*
X170343615Y-117744848D01*
X170176414Y-117612800D01*
X170176410Y-117612798D01*
X170172359Y-117609598D01*
X170167831Y-117607098D01*
X170116608Y-117578822D01*
X169976789Y-117501638D01*
X169971920Y-117499914D01*
X169971916Y-117499912D01*
X169771087Y-117428795D01*
X169771083Y-117428794D01*
X169766212Y-117427069D01*
X169761119Y-117426162D01*
X169761116Y-117426161D01*
X169551373Y-117388800D01*
X169551367Y-117388799D01*
X169546284Y-117387894D01*
X169472452Y-117386992D01*
X169328081Y-117385228D01*
X169328079Y-117385228D01*
X169322911Y-117385165D01*
X169102091Y-117418955D01*
X168889756Y-117488357D01*
X168816757Y-117526358D01*
X168715975Y-117578822D01*
X168691607Y-117591507D01*
X168687474Y-117594610D01*
X168687471Y-117594612D01*
X168517100Y-117722530D01*
X168512965Y-117725635D01*
X168358629Y-117887138D01*
X168251201Y-118044621D01*
X168196293Y-118089621D01*
X168125768Y-118097792D01*
X168062021Y-118066538D01*
X168041324Y-118042054D01*
X167960822Y-117917617D01*
X167960820Y-117917614D01*
X167958014Y-117913277D01*
X167807670Y-117748051D01*
X167803619Y-117744852D01*
X167803615Y-117744848D01*
X167636414Y-117612800D01*
X167636410Y-117612798D01*
X167632359Y-117609598D01*
X167627831Y-117607098D01*
X167576608Y-117578822D01*
X167436789Y-117501638D01*
X167431920Y-117499914D01*
X167431916Y-117499912D01*
X167231087Y-117428795D01*
X167231083Y-117428794D01*
X167226212Y-117427069D01*
X167221119Y-117426162D01*
X167221116Y-117426161D01*
X167011373Y-117388800D01*
X167011367Y-117388799D01*
X167006284Y-117387894D01*
X166932452Y-117386992D01*
X166788081Y-117385228D01*
X166788079Y-117385228D01*
X166782911Y-117385165D01*
X166562091Y-117418955D01*
X166349756Y-117488357D01*
X166276757Y-117526358D01*
X166175975Y-117578822D01*
X166151607Y-117591507D01*
X166147474Y-117594610D01*
X166147471Y-117594612D01*
X165977100Y-117722530D01*
X165972965Y-117725635D01*
X165818629Y-117887138D01*
X165711201Y-118044621D01*
X165656293Y-118089621D01*
X165585768Y-118097792D01*
X165522021Y-118066538D01*
X165501324Y-118042054D01*
X165420822Y-117917617D01*
X165420820Y-117917614D01*
X165418014Y-117913277D01*
X165267670Y-117748051D01*
X165263619Y-117744852D01*
X165263615Y-117744848D01*
X165096414Y-117612800D01*
X165096410Y-117612798D01*
X165092359Y-117609598D01*
X165087831Y-117607098D01*
X165036608Y-117578822D01*
X164896789Y-117501638D01*
X164891920Y-117499914D01*
X164891916Y-117499912D01*
X164691087Y-117428795D01*
X164691083Y-117428794D01*
X164686212Y-117427069D01*
X164681119Y-117426162D01*
X164681116Y-117426161D01*
X164471373Y-117388800D01*
X164471367Y-117388799D01*
X164466284Y-117387894D01*
X164392452Y-117386992D01*
X164248081Y-117385228D01*
X164248079Y-117385228D01*
X164242911Y-117385165D01*
X164022091Y-117418955D01*
X163809756Y-117488357D01*
X163736757Y-117526358D01*
X163635975Y-117578822D01*
X163611607Y-117591507D01*
X163607474Y-117594610D01*
X163607471Y-117594612D01*
X163437100Y-117722530D01*
X163432965Y-117725635D01*
X163278629Y-117887138D01*
X163171201Y-118044621D01*
X163116293Y-118089621D01*
X163045768Y-118097792D01*
X162982021Y-118066538D01*
X162961324Y-118042054D01*
X162880822Y-117917617D01*
X162880820Y-117917614D01*
X162878014Y-117913277D01*
X162727670Y-117748051D01*
X162723619Y-117744852D01*
X162723615Y-117744848D01*
X162556414Y-117612800D01*
X162556410Y-117612798D01*
X162552359Y-117609598D01*
X162547831Y-117607098D01*
X162496608Y-117578822D01*
X162356789Y-117501638D01*
X162351920Y-117499914D01*
X162351916Y-117499912D01*
X162151087Y-117428795D01*
X162151083Y-117428794D01*
X162146212Y-117427069D01*
X162141119Y-117426162D01*
X162141116Y-117426161D01*
X161931373Y-117388800D01*
X161931367Y-117388799D01*
X161926284Y-117387894D01*
X161852452Y-117386992D01*
X161708081Y-117385228D01*
X161708079Y-117385228D01*
X161702911Y-117385165D01*
X161482091Y-117418955D01*
X161269756Y-117488357D01*
X161196757Y-117526358D01*
X161095975Y-117578822D01*
X161071607Y-117591507D01*
X161067474Y-117594610D01*
X161067471Y-117594612D01*
X160897100Y-117722530D01*
X160892965Y-117725635D01*
X160738629Y-117887138D01*
X160631201Y-118044621D01*
X160576293Y-118089621D01*
X160505768Y-118097792D01*
X160442021Y-118066538D01*
X160421324Y-118042054D01*
X160340822Y-117917617D01*
X160340820Y-117917614D01*
X160338014Y-117913277D01*
X160187670Y-117748051D01*
X160183619Y-117744852D01*
X160183615Y-117744848D01*
X160016414Y-117612800D01*
X160016410Y-117612798D01*
X160012359Y-117609598D01*
X160007835Y-117607101D01*
X160007831Y-117607098D01*
X159956608Y-117578822D01*
X159906636Y-117528390D01*
X159891500Y-117468513D01*
X159891500Y-77008904D01*
X159911502Y-76940783D01*
X159952134Y-76901185D01*
X160064799Y-76832818D01*
X160069359Y-76830051D01*
X160167492Y-76744896D01*
X160241197Y-76680939D01*
X160241199Y-76680937D01*
X160245230Y-76677439D01*
X160248613Y-76673313D01*
X160248617Y-76673309D01*
X160389487Y-76501504D01*
X160392872Y-76497376D01*
X160418845Y-76451748D01*
X160469927Y-76402442D01*
X160539558Y-76388580D01*
X160605629Y-76414563D01*
X160632867Y-76443713D01*
X160724804Y-76580272D01*
X160885532Y-76748758D01*
X161072350Y-76887754D01*
X161077102Y-76890170D01*
X161274244Y-76990402D01*
X161279916Y-76993286D01*
X161352613Y-77015859D01*
X161497193Y-77060753D01*
X161497199Y-77060754D01*
X161502296Y-77062337D01*
X161626660Y-77078820D01*
X161727848Y-77092232D01*
X161727852Y-77092232D01*
X161733132Y-77092932D01*
X161738462Y-77092732D01*
X161738463Y-77092732D01*
X161849477Y-77088564D01*
X161965822Y-77084197D01*
X162130713Y-77049599D01*
X162188486Y-77037477D01*
X162188489Y-77037476D01*
X162193713Y-77036380D01*
X162410290Y-76950850D01*
X162609359Y-76830051D01*
X162707492Y-76744896D01*
X162781197Y-76680939D01*
X162781199Y-76680937D01*
X162785230Y-76677439D01*
X162788613Y-76673313D01*
X162788617Y-76673309D01*
X162929487Y-76501504D01*
X162932872Y-76497376D01*
X162958845Y-76451748D01*
X163009927Y-76402442D01*
X163079558Y-76388580D01*
X163145629Y-76414563D01*
X163172867Y-76443713D01*
X163264804Y-76580272D01*
X163425532Y-76748758D01*
X163612350Y-76887754D01*
X163617102Y-76890170D01*
X163814244Y-76990402D01*
X163819916Y-76993286D01*
X163892613Y-77015859D01*
X164037193Y-77060753D01*
X164037199Y-77060754D01*
X164042296Y-77062337D01*
X164166660Y-77078820D01*
X164267848Y-77092232D01*
X164267852Y-77092232D01*
X164273132Y-77092932D01*
X164278462Y-77092732D01*
X164278463Y-77092732D01*
X164389477Y-77088564D01*
X164505822Y-77084197D01*
X164670713Y-77049599D01*
X164728486Y-77037477D01*
X164728489Y-77037476D01*
X164733713Y-77036380D01*
X164950290Y-76950850D01*
X165149359Y-76830051D01*
X165247492Y-76744896D01*
X165321197Y-76680939D01*
X165321199Y-76680937D01*
X165325230Y-76677439D01*
X165328613Y-76673313D01*
X165328617Y-76673309D01*
X165469487Y-76501504D01*
X165472872Y-76497376D01*
X165498845Y-76451748D01*
X165549927Y-76402442D01*
X165619558Y-76388580D01*
X165685629Y-76414563D01*
X165712867Y-76443713D01*
X165804804Y-76580272D01*
X165965532Y-76748758D01*
X166152350Y-76887754D01*
X166157102Y-76890170D01*
X166354244Y-76990402D01*
X166359916Y-76993286D01*
X166432613Y-77015859D01*
X166577193Y-77060753D01*
X166577199Y-77060754D01*
X166582296Y-77062337D01*
X166706660Y-77078820D01*
X166807848Y-77092232D01*
X166807852Y-77092232D01*
X166813132Y-77092932D01*
X166818462Y-77092732D01*
X166818463Y-77092732D01*
X166929477Y-77088564D01*
X167045822Y-77084197D01*
X167210713Y-77049599D01*
X167268486Y-77037477D01*
X167268489Y-77037476D01*
X167273713Y-77036380D01*
X167490290Y-76950850D01*
X167689359Y-76830051D01*
X167787492Y-76744896D01*
X167861197Y-76680939D01*
X167861199Y-76680937D01*
X167865230Y-76677439D01*
X167868613Y-76673313D01*
X167868617Y-76673309D01*
X168009487Y-76501504D01*
X168012872Y-76497376D01*
X168038845Y-76451748D01*
X168089927Y-76402442D01*
X168159558Y-76388580D01*
X168225629Y-76414563D01*
X168252867Y-76443713D01*
X168344804Y-76580272D01*
X168505532Y-76748758D01*
X168692350Y-76887754D01*
X168697102Y-76890170D01*
X168894244Y-76990402D01*
X168899916Y-76993286D01*
X168972613Y-77015859D01*
X169117193Y-77060753D01*
X169117199Y-77060754D01*
X169122296Y-77062337D01*
X169246660Y-77078820D01*
X169347848Y-77092232D01*
X169347852Y-77092232D01*
X169353132Y-77092932D01*
X169358462Y-77092732D01*
X169358463Y-77092732D01*
X169469477Y-77088564D01*
X169585822Y-77084197D01*
X169750713Y-77049599D01*
X169808486Y-77037477D01*
X169808489Y-77037476D01*
X169813713Y-77036380D01*
X170030290Y-76950850D01*
X170229359Y-76830051D01*
X170327492Y-76744896D01*
X170401197Y-76680939D01*
X170401199Y-76680937D01*
X170405230Y-76677439D01*
X170408613Y-76673313D01*
X170408617Y-76673309D01*
X170549487Y-76501504D01*
X170552872Y-76497376D01*
X170578845Y-76451748D01*
X170629927Y-76402442D01*
X170699558Y-76388580D01*
X170765629Y-76414563D01*
X170792867Y-76443713D01*
X170884804Y-76580272D01*
X171045532Y-76748758D01*
X171232350Y-76887754D01*
X171237102Y-76890170D01*
X171434244Y-76990402D01*
X171439916Y-76993286D01*
X171512613Y-77015859D01*
X171657193Y-77060753D01*
X171657199Y-77060754D01*
X171662296Y-77062337D01*
X171786660Y-77078820D01*
X171887848Y-77092232D01*
X171887852Y-77092232D01*
X171893132Y-77092932D01*
X171898462Y-77092732D01*
X171898463Y-77092732D01*
X172009477Y-77088564D01*
X172125822Y-77084197D01*
X172290713Y-77049599D01*
X172348486Y-77037477D01*
X172348489Y-77037476D01*
X172353713Y-77036380D01*
X172570290Y-76950850D01*
X172769359Y-76830051D01*
X172867492Y-76744896D01*
X172941197Y-76680939D01*
X172941199Y-76680937D01*
X172945230Y-76677439D01*
X172948613Y-76673313D01*
X172948617Y-76673309D01*
X173089487Y-76501504D01*
X173092872Y-76497376D01*
X173118845Y-76451748D01*
X173169927Y-76402442D01*
X173239558Y-76388580D01*
X173305629Y-76414563D01*
X173332867Y-76443713D01*
X173424804Y-76580272D01*
X173585532Y-76748758D01*
X173772350Y-76887754D01*
X173777102Y-76890170D01*
X173974244Y-76990402D01*
X173979916Y-76993286D01*
X174052613Y-77015859D01*
X174197193Y-77060753D01*
X174197199Y-77060754D01*
X174202296Y-77062337D01*
X174326660Y-77078820D01*
X174427848Y-77092232D01*
X174427852Y-77092232D01*
X174433132Y-77092932D01*
X174438462Y-77092732D01*
X174438463Y-77092732D01*
X174549477Y-77088564D01*
X174665822Y-77084197D01*
X174830713Y-77049599D01*
X174888486Y-77037477D01*
X174888489Y-77037476D01*
X174893713Y-77036380D01*
X175110290Y-76950850D01*
X175309359Y-76830051D01*
X175407492Y-76744896D01*
X175481197Y-76680939D01*
X175481199Y-76680937D01*
X175485230Y-76677439D01*
X175488613Y-76673313D01*
X175488617Y-76673309D01*
X175629487Y-76501504D01*
X175632872Y-76497376D01*
X175663696Y-76443227D01*
X175745422Y-76299654D01*
X175748065Y-76295011D01*
X175768239Y-76239435D01*
X175825695Y-76081146D01*
X175825696Y-76081142D01*
X175827515Y-76076131D01*
X175868950Y-75846993D01*
X175870100Y-75822606D01*
X175870100Y-75354132D01*
X175855374Y-75180580D01*
X175854035Y-75175420D01*
X175798217Y-74960363D01*
X175798216Y-74960359D01*
X175796875Y-74955194D01*
X175701238Y-74742887D01*
X175571196Y-74549728D01*
X175410468Y-74381242D01*
X175223650Y-74242246D01*
X175096574Y-74177637D01*
X175020842Y-74139133D01*
X175020841Y-74139133D01*
X175016084Y-74136714D01*
X174877299Y-74093620D01*
X174798807Y-74069247D01*
X174798801Y-74069246D01*
X174793704Y-74067663D01*
X174669340Y-74051180D01*
X174568152Y-74037768D01*
X174568148Y-74037768D01*
X174562868Y-74037068D01*
X174557538Y-74037268D01*
X174557537Y-74037268D01*
X174446523Y-74041436D01*
X174330178Y-74045803D01*
X174247474Y-74063156D01*
X174107514Y-74092523D01*
X174107511Y-74092524D01*
X174102287Y-74093620D01*
X173885710Y-74179150D01*
X173686641Y-74299949D01*
X173682611Y-74303446D01*
X173588075Y-74385480D01*
X173510770Y-74452561D01*
X173507387Y-74456687D01*
X173507383Y-74456691D01*
X173434262Y-74545869D01*
X173363128Y-74632624D01*
X173360490Y-74637259D01*
X173360487Y-74637263D01*
X173337155Y-74678252D01*
X173286073Y-74727558D01*
X173216442Y-74741420D01*
X173150371Y-74715437D01*
X173123133Y-74686287D01*
X173034176Y-74554155D01*
X173031196Y-74549728D01*
X172870468Y-74381242D01*
X172683650Y-74242246D01*
X172556574Y-74177637D01*
X172480842Y-74139133D01*
X172480841Y-74139133D01*
X172476084Y-74136714D01*
X172337299Y-74093620D01*
X172258807Y-74069247D01*
X172258801Y-74069246D01*
X172253704Y-74067663D01*
X172129340Y-74051180D01*
X172028152Y-74037768D01*
X172028148Y-74037768D01*
X172022868Y-74037068D01*
X172017538Y-74037268D01*
X172017537Y-74037268D01*
X171906523Y-74041436D01*
X171790178Y-74045803D01*
X171707474Y-74063156D01*
X171567514Y-74092523D01*
X171567511Y-74092524D01*
X171562287Y-74093620D01*
X171345710Y-74179150D01*
X171146641Y-74299949D01*
X171142611Y-74303446D01*
X171048075Y-74385480D01*
X170970770Y-74452561D01*
X170967387Y-74456687D01*
X170967383Y-74456691D01*
X170894262Y-74545869D01*
X170823128Y-74632624D01*
X170820490Y-74637259D01*
X170820487Y-74637263D01*
X170797155Y-74678252D01*
X170746073Y-74727558D01*
X170676442Y-74741420D01*
X170610371Y-74715437D01*
X170583133Y-74686287D01*
X170494176Y-74554155D01*
X170491196Y-74549728D01*
X170330468Y-74381242D01*
X170143650Y-74242246D01*
X170016574Y-74177637D01*
X169940842Y-74139133D01*
X169940841Y-74139133D01*
X169936084Y-74136714D01*
X169797299Y-74093620D01*
X169718807Y-74069247D01*
X169718801Y-74069246D01*
X169713704Y-74067663D01*
X169589340Y-74051180D01*
X169488152Y-74037768D01*
X169488148Y-74037768D01*
X169482868Y-74037068D01*
X169477538Y-74037268D01*
X169477537Y-74037268D01*
X169366523Y-74041436D01*
X169250178Y-74045803D01*
X169167474Y-74063156D01*
X169027514Y-74092523D01*
X169027511Y-74092524D01*
X169022287Y-74093620D01*
X168805710Y-74179150D01*
X168606641Y-74299949D01*
X168602611Y-74303446D01*
X168508075Y-74385480D01*
X168430770Y-74452561D01*
X168427387Y-74456687D01*
X168427383Y-74456691D01*
X168354262Y-74545869D01*
X168283128Y-74632624D01*
X168280490Y-74637259D01*
X168280487Y-74637263D01*
X168257155Y-74678252D01*
X168206073Y-74727558D01*
X168136442Y-74741420D01*
X168070371Y-74715437D01*
X168043133Y-74686287D01*
X167954176Y-74554155D01*
X167951196Y-74549728D01*
X167790468Y-74381242D01*
X167603650Y-74242246D01*
X167476574Y-74177637D01*
X167400842Y-74139133D01*
X167400841Y-74139133D01*
X167396084Y-74136714D01*
X167257299Y-74093620D01*
X167178807Y-74069247D01*
X167178801Y-74069246D01*
X167173704Y-74067663D01*
X167049340Y-74051180D01*
X166948152Y-74037768D01*
X166948148Y-74037768D01*
X166942868Y-74037068D01*
X166937538Y-74037268D01*
X166937537Y-74037268D01*
X166826523Y-74041436D01*
X166710178Y-74045803D01*
X166627474Y-74063156D01*
X166487514Y-74092523D01*
X166487511Y-74092524D01*
X166482287Y-74093620D01*
X166265710Y-74179150D01*
X166066641Y-74299949D01*
X166062611Y-74303446D01*
X165968075Y-74385480D01*
X165890770Y-74452561D01*
X165887387Y-74456687D01*
X165887383Y-74456691D01*
X165814262Y-74545869D01*
X165743128Y-74632624D01*
X165740490Y-74637259D01*
X165740487Y-74637263D01*
X165717155Y-74678252D01*
X165666073Y-74727558D01*
X165596442Y-74741420D01*
X165530371Y-74715437D01*
X165503133Y-74686287D01*
X165414176Y-74554155D01*
X165411196Y-74549728D01*
X165250468Y-74381242D01*
X165063650Y-74242246D01*
X164936574Y-74177637D01*
X164860842Y-74139133D01*
X164860841Y-74139133D01*
X164856084Y-74136714D01*
X164717299Y-74093620D01*
X164638807Y-74069247D01*
X164638801Y-74069246D01*
X164633704Y-74067663D01*
X164509340Y-74051180D01*
X164408152Y-74037768D01*
X164408148Y-74037768D01*
X164402868Y-74037068D01*
X164397538Y-74037268D01*
X164397537Y-74037268D01*
X164286523Y-74041436D01*
X164170178Y-74045803D01*
X164087474Y-74063156D01*
X163947514Y-74092523D01*
X163947511Y-74092524D01*
X163942287Y-74093620D01*
X163725710Y-74179150D01*
X163526641Y-74299949D01*
X163522611Y-74303446D01*
X163428075Y-74385480D01*
X163350770Y-74452561D01*
X163347387Y-74456687D01*
X163347383Y-74456691D01*
X163274262Y-74545869D01*
X163203128Y-74632624D01*
X163200490Y-74637259D01*
X163200487Y-74637263D01*
X163177155Y-74678252D01*
X163126073Y-74727558D01*
X163056442Y-74741420D01*
X162990371Y-74715437D01*
X162963133Y-74686287D01*
X162874176Y-74554155D01*
X162871196Y-74549728D01*
X162710468Y-74381242D01*
X162523650Y-74242246D01*
X162396574Y-74177637D01*
X162320842Y-74139133D01*
X162320841Y-74139133D01*
X162316084Y-74136714D01*
X162177299Y-74093620D01*
X162098807Y-74069247D01*
X162098801Y-74069246D01*
X162093704Y-74067663D01*
X161969340Y-74051180D01*
X161868152Y-74037768D01*
X161868148Y-74037768D01*
X161862868Y-74037068D01*
X161857538Y-74037268D01*
X161857537Y-74037268D01*
X161746523Y-74041436D01*
X161630178Y-74045803D01*
X161547474Y-74063156D01*
X161407514Y-74092523D01*
X161407511Y-74092524D01*
X161402287Y-74093620D01*
X161185710Y-74179150D01*
X160986641Y-74299949D01*
X160982611Y-74303446D01*
X160888075Y-74385480D01*
X160810770Y-74452561D01*
X160807387Y-74456687D01*
X160807383Y-74456691D01*
X160734262Y-74545869D01*
X160663128Y-74632624D01*
X160660490Y-74637259D01*
X160660487Y-74637263D01*
X160637155Y-74678252D01*
X160586073Y-74727558D01*
X160516442Y-74741420D01*
X160450371Y-74715437D01*
X160423133Y-74686287D01*
X160334176Y-74554155D01*
X160331196Y-74549728D01*
X160170468Y-74381242D01*
X159983650Y-74242246D01*
X159856574Y-74177637D01*
X159780842Y-74139133D01*
X159780841Y-74139133D01*
X159776084Y-74136714D01*
X159637299Y-74093620D01*
X159558807Y-74069247D01*
X159558801Y-74069246D01*
X159553704Y-74067663D01*
X159429340Y-74051180D01*
X159328152Y-74037768D01*
X159328148Y-74037768D01*
X159322868Y-74037068D01*
X159317538Y-74037268D01*
X159317537Y-74037268D01*
X159206523Y-74041436D01*
X159090178Y-74045803D01*
X159007474Y-74063156D01*
X158867514Y-74092523D01*
X158867511Y-74092524D01*
X158862287Y-74093620D01*
X158645710Y-74179150D01*
X158446641Y-74299949D01*
X158442611Y-74303446D01*
X158348075Y-74385480D01*
X158270770Y-74452561D01*
X158267387Y-74456687D01*
X158267383Y-74456691D01*
X158194262Y-74545869D01*
X158123128Y-74632624D01*
X158120490Y-74637259D01*
X158120487Y-74637263D01*
X158097155Y-74678252D01*
X158046073Y-74727558D01*
X157976442Y-74741420D01*
X157910371Y-74715437D01*
X157883133Y-74686287D01*
X157794176Y-74554155D01*
X157791196Y-74549728D01*
X157630468Y-74381242D01*
X157443650Y-74242246D01*
X157316574Y-74177637D01*
X157240842Y-74139133D01*
X157240841Y-74139133D01*
X157236084Y-74136714D01*
X157097299Y-74093620D01*
X157018807Y-74069247D01*
X157018801Y-74069246D01*
X157013704Y-74067663D01*
X156889340Y-74051180D01*
X156788152Y-74037768D01*
X156788148Y-74037768D01*
X156782868Y-74037068D01*
X156777538Y-74037268D01*
X156777537Y-74037268D01*
X156666523Y-74041436D01*
X156550178Y-74045803D01*
X156467474Y-74063156D01*
X156327514Y-74092523D01*
X156327511Y-74092524D01*
X156322287Y-74093620D01*
X156105710Y-74179150D01*
X155906641Y-74299949D01*
X155902611Y-74303446D01*
X155808075Y-74385480D01*
X155730770Y-74452561D01*
X155727387Y-74456687D01*
X155727383Y-74456691D01*
X155654262Y-74545869D01*
X155583128Y-74632624D01*
X155580490Y-74637259D01*
X155580487Y-74637263D01*
X155517589Y-74747760D01*
X155467935Y-74834989D01*
X155466114Y-74840005D01*
X155466112Y-74840010D01*
X155424302Y-74955194D01*
X155388485Y-75053869D01*
X155347050Y-75283007D01*
X155345900Y-75307394D01*
X155345900Y-75775868D01*
X155360626Y-75949420D01*
X155361964Y-75954577D01*
X155361965Y-75954580D01*
X155394816Y-76081146D01*
X155419125Y-76174806D01*
X155514762Y-76387113D01*
X155644804Y-76580272D01*
X155805532Y-76748758D01*
X155992350Y-76887754D01*
X155997102Y-76890170D01*
X156194244Y-76990402D01*
X156199916Y-76993286D01*
X156272613Y-77015859D01*
X156417193Y-77060753D01*
X156417199Y-77060754D01*
X156422296Y-77062337D01*
X156546660Y-77078820D01*
X156647848Y-77092232D01*
X156647852Y-77092232D01*
X156653132Y-77092932D01*
X156658462Y-77092732D01*
X156658463Y-77092732D01*
X156769477Y-77088564D01*
X156885822Y-77084197D01*
X157050713Y-77049599D01*
X157108486Y-77037477D01*
X157108489Y-77037476D01*
X157113713Y-77036380D01*
X157330290Y-76950850D01*
X157529359Y-76830051D01*
X157627492Y-76744896D01*
X157701197Y-76680939D01*
X157701199Y-76680937D01*
X157705230Y-76677439D01*
X157708613Y-76673313D01*
X157708617Y-76673309D01*
X157849487Y-76501504D01*
X157852872Y-76497376D01*
X157878845Y-76451748D01*
X157929927Y-76402442D01*
X157999558Y-76388580D01*
X158065629Y-76414563D01*
X158092867Y-76443713D01*
X158184804Y-76580272D01*
X158345532Y-76748758D01*
X158532350Y-76887754D01*
X158555606Y-76899578D01*
X158607263Y-76948281D01*
X158624500Y-77011894D01*
X158624500Y-96591406D01*
X158604498Y-96659527D01*
X158550842Y-96706020D01*
X158480568Y-96716124D01*
X158415988Y-96686630D01*
X158409405Y-96680501D01*
X156500801Y-94771897D01*
X156466775Y-94709585D01*
X156463949Y-94679148D01*
X156464000Y-94677390D01*
X156464000Y-94663517D01*
X156972000Y-94663517D01*
X156976064Y-94677359D01*
X156989478Y-94679393D01*
X156996184Y-94678534D01*
X157006262Y-94676392D01*
X157210255Y-94615191D01*
X157219842Y-94611433D01*
X157411095Y-94517739D01*
X157419945Y-94512464D01*
X157593328Y-94388792D01*
X157601200Y-94382139D01*
X157752052Y-94231812D01*
X157758730Y-94223965D01*
X157883003Y-94051020D01*
X157888313Y-94042183D01*
X157982670Y-93851267D01*
X157986469Y-93841672D01*
X158048377Y-93637910D01*
X158050555Y-93627837D01*
X158051986Y-93616962D01*
X158049775Y-93602778D01*
X158036617Y-93599000D01*
X156990115Y-93599000D01*
X156974876Y-93603475D01*
X156973671Y-93604865D01*
X156972000Y-93612548D01*
X156972000Y-94663517D01*
X156464000Y-94663517D01*
X156464000Y-93617115D01*
X156459525Y-93601876D01*
X156458135Y-93600671D01*
X156450452Y-93599000D01*
X155383110Y-93599000D01*
X155383110Y-93594580D01*
X155345307Y-93594589D01*
X155291684Y-93562780D01*
X153342895Y-91613990D01*
X152500600Y-90771695D01*
X155355251Y-90771695D01*
X155355548Y-90776848D01*
X155355548Y-90776851D01*
X155361011Y-90871590D01*
X155368110Y-90994715D01*
X155369247Y-90999761D01*
X155369248Y-90999767D01*
X155389119Y-91087939D01*
X155417222Y-91212639D01*
X155501266Y-91419616D01*
X155617987Y-91610088D01*
X155764250Y-91778938D01*
X155936126Y-91921632D01*
X156009955Y-91964774D01*
X156058679Y-92016412D01*
X156071750Y-92086195D01*
X156045019Y-92151967D01*
X156004562Y-92185327D01*
X155996457Y-92189546D01*
X155987738Y-92195036D01*
X155817433Y-92322905D01*
X155809726Y-92329748D01*
X155662590Y-92483717D01*
X155656104Y-92491727D01*
X155536098Y-92667649D01*
X155531000Y-92676623D01*
X155441338Y-92869783D01*
X155437775Y-92879470D01*
X155382389Y-93079183D01*
X155383912Y-93087607D01*
X155396292Y-93091000D01*
X158036344Y-93091000D01*
X158049875Y-93087027D01*
X158051180Y-93077947D01*
X158009214Y-92910875D01*
X158005894Y-92901124D01*
X157920972Y-92705814D01*
X157916105Y-92696739D01*
X157800426Y-92517926D01*
X157794136Y-92509757D01*
X157650806Y-92352240D01*
X157643273Y-92345215D01*
X157476139Y-92213222D01*
X157467556Y-92207520D01*
X157430602Y-92187120D01*
X157380631Y-92136687D01*
X157365859Y-92067245D01*
X157390975Y-92000839D01*
X157418327Y-91974232D01*
X157441797Y-91957491D01*
X157597860Y-91846173D01*
X157756096Y-91688489D01*
X157815594Y-91605689D01*
X157883435Y-91511277D01*
X157886453Y-91507077D01*
X157985430Y-91306811D01*
X158050370Y-91093069D01*
X158079529Y-90871590D01*
X158081156Y-90805000D01*
X158062852Y-90582361D01*
X158008431Y-90365702D01*
X157919354Y-90160840D01*
X157798014Y-89973277D01*
X157647670Y-89808051D01*
X157643619Y-89804852D01*
X157643615Y-89804848D01*
X157476414Y-89672800D01*
X157476410Y-89672798D01*
X157472359Y-89669598D01*
X157431053Y-89646796D01*
X157381084Y-89596364D01*
X157366312Y-89526921D01*
X157391428Y-89460516D01*
X157418780Y-89433909D01*
X157462603Y-89402650D01*
X157597860Y-89306173D01*
X157756096Y-89148489D01*
X157815594Y-89065689D01*
X157883435Y-88971277D01*
X157886453Y-88967077D01*
X157985430Y-88766811D01*
X158050370Y-88553069D01*
X158079529Y-88331590D01*
X158081156Y-88265000D01*
X158062852Y-88042361D01*
X158008431Y-87825702D01*
X157919354Y-87620840D01*
X157798014Y-87433277D01*
X157647670Y-87268051D01*
X157643619Y-87264852D01*
X157643615Y-87264848D01*
X157476414Y-87132800D01*
X157476410Y-87132798D01*
X157472359Y-87129598D01*
X157431053Y-87106796D01*
X157381084Y-87056364D01*
X157366312Y-86986921D01*
X157391428Y-86920516D01*
X157418780Y-86893909D01*
X157482445Y-86848497D01*
X157597860Y-86766173D01*
X157611135Y-86752945D01*
X157752435Y-86612137D01*
X157756096Y-86608489D01*
X157815594Y-86525689D01*
X157883435Y-86431277D01*
X157886453Y-86427077D01*
X157985430Y-86226811D01*
X158050370Y-86013069D01*
X158079529Y-85791590D01*
X158081156Y-85725000D01*
X158062852Y-85502361D01*
X158008431Y-85285702D01*
X157919354Y-85080840D01*
X157798014Y-84893277D01*
X157647670Y-84728051D01*
X157643619Y-84724852D01*
X157643615Y-84724848D01*
X157476414Y-84592800D01*
X157476410Y-84592798D01*
X157472359Y-84589598D01*
X157431053Y-84566796D01*
X157381084Y-84516364D01*
X157366312Y-84446921D01*
X157391428Y-84380516D01*
X157418780Y-84353909D01*
X157462603Y-84322650D01*
X157597860Y-84226173D01*
X157756096Y-84068489D01*
X157815594Y-83985689D01*
X157883435Y-83891277D01*
X157886453Y-83887077D01*
X157985430Y-83686811D01*
X158050370Y-83473069D01*
X158079529Y-83251590D01*
X158081156Y-83185000D01*
X158062852Y-82962361D01*
X158008431Y-82745702D01*
X157919354Y-82540840D01*
X157798014Y-82353277D01*
X157794532Y-82349450D01*
X157650798Y-82191488D01*
X157619746Y-82127642D01*
X157628141Y-82057143D01*
X157673317Y-82002375D01*
X157699761Y-81988706D01*
X157806297Y-81948767D01*
X157814705Y-81945615D01*
X157931261Y-81858261D01*
X158018615Y-81741705D01*
X158069745Y-81605316D01*
X158076500Y-81543134D01*
X158076500Y-79746866D01*
X158069745Y-79684684D01*
X158018615Y-79548295D01*
X157931261Y-79431739D01*
X157814705Y-79344385D01*
X157678316Y-79293255D01*
X157616134Y-79286500D01*
X155819866Y-79286500D01*
X155757684Y-79293255D01*
X155621295Y-79344385D01*
X155504739Y-79431739D01*
X155417385Y-79548295D01*
X155366255Y-79684684D01*
X155359500Y-79746866D01*
X155359500Y-81543134D01*
X155366255Y-81605316D01*
X155417385Y-81741705D01*
X155504739Y-81858261D01*
X155621295Y-81945615D01*
X155629704Y-81948767D01*
X155629705Y-81948768D01*
X155738451Y-81989535D01*
X155795216Y-82032176D01*
X155819916Y-82098738D01*
X155804709Y-82168087D01*
X155785316Y-82194568D01*
X155658629Y-82327138D01*
X155532743Y-82511680D01*
X155438688Y-82714305D01*
X155378989Y-82929570D01*
X155355251Y-83151695D01*
X155355548Y-83156848D01*
X155355548Y-83156851D01*
X155361011Y-83251590D01*
X155368110Y-83374715D01*
X155369247Y-83379761D01*
X155369248Y-83379767D01*
X155389119Y-83467939D01*
X155417222Y-83592639D01*
X155501266Y-83799616D01*
X155617987Y-83990088D01*
X155764250Y-84158938D01*
X155936126Y-84301632D01*
X156006595Y-84342811D01*
X156009445Y-84344476D01*
X156058169Y-84396114D01*
X156071240Y-84465897D01*
X156044509Y-84531669D01*
X156004055Y-84565027D01*
X155991607Y-84571507D01*
X155987474Y-84574610D01*
X155987471Y-84574612D01*
X155963247Y-84592800D01*
X155812965Y-84705635D01*
X155658629Y-84867138D01*
X155532743Y-85051680D01*
X155438688Y-85254305D01*
X155378989Y-85469570D01*
X155355251Y-85691695D01*
X155355548Y-85696848D01*
X155355548Y-85696851D01*
X155361011Y-85791590D01*
X155368110Y-85914715D01*
X155369247Y-85919761D01*
X155369248Y-85919767D01*
X155389119Y-86007939D01*
X155417222Y-86132639D01*
X155501266Y-86339616D01*
X155617987Y-86530088D01*
X155764250Y-86698938D01*
X155829302Y-86752945D01*
X155925693Y-86832970D01*
X155936126Y-86841632D01*
X156001272Y-86879700D01*
X156009445Y-86884476D01*
X156058169Y-86936114D01*
X156071240Y-87005897D01*
X156044509Y-87071669D01*
X156004055Y-87105027D01*
X155991607Y-87111507D01*
X155987474Y-87114610D01*
X155987471Y-87114612D01*
X155854715Y-87214288D01*
X155812965Y-87245635D01*
X155658629Y-87407138D01*
X155532743Y-87591680D01*
X155438688Y-87794305D01*
X155378989Y-88009570D01*
X155355251Y-88231695D01*
X155355548Y-88236848D01*
X155355548Y-88236851D01*
X155361011Y-88331590D01*
X155368110Y-88454715D01*
X155369247Y-88459761D01*
X155369248Y-88459767D01*
X155389119Y-88547939D01*
X155417222Y-88672639D01*
X155501266Y-88879616D01*
X155617987Y-89070088D01*
X155764250Y-89238938D01*
X155936126Y-89381632D01*
X156006595Y-89422811D01*
X156009445Y-89424476D01*
X156058169Y-89476114D01*
X156071240Y-89545897D01*
X156044509Y-89611669D01*
X156004055Y-89645027D01*
X155991607Y-89651507D01*
X155987474Y-89654610D01*
X155987471Y-89654612D01*
X155963247Y-89672800D01*
X155812965Y-89785635D01*
X155658629Y-89947138D01*
X155532743Y-90131680D01*
X155438688Y-90334305D01*
X155378989Y-90549570D01*
X155355251Y-90771695D01*
X152500600Y-90771695D01*
X148244405Y-86515500D01*
X148210379Y-86453188D01*
X148207500Y-86426405D01*
X148207500Y-77008904D01*
X148227502Y-76940783D01*
X148268134Y-76901185D01*
X148380799Y-76832818D01*
X148385359Y-76830051D01*
X148483492Y-76744896D01*
X148557197Y-76680939D01*
X148557199Y-76680937D01*
X148561230Y-76677439D01*
X148564613Y-76673313D01*
X148564617Y-76673309D01*
X148705487Y-76501504D01*
X148708872Y-76497376D01*
X148734845Y-76451748D01*
X148785927Y-76402442D01*
X148855558Y-76388580D01*
X148921629Y-76414563D01*
X148948867Y-76443713D01*
X149040804Y-76580272D01*
X149201532Y-76748758D01*
X149388350Y-76887754D01*
X149393102Y-76890170D01*
X149590244Y-76990402D01*
X149595916Y-76993286D01*
X149668613Y-77015859D01*
X149813193Y-77060753D01*
X149813199Y-77060754D01*
X149818296Y-77062337D01*
X149942660Y-77078820D01*
X150043848Y-77092232D01*
X150043852Y-77092232D01*
X150049132Y-77092932D01*
X150054462Y-77092732D01*
X150054463Y-77092732D01*
X150165477Y-77088564D01*
X150281822Y-77084197D01*
X150446713Y-77049599D01*
X150504486Y-77037477D01*
X150504489Y-77037476D01*
X150509713Y-77036380D01*
X150726290Y-76950850D01*
X150925359Y-76830051D01*
X151023492Y-76744896D01*
X151097197Y-76680939D01*
X151097199Y-76680937D01*
X151101230Y-76677439D01*
X151104613Y-76673313D01*
X151104617Y-76673309D01*
X151245487Y-76501504D01*
X151248872Y-76497376D01*
X151274845Y-76451748D01*
X151325927Y-76402442D01*
X151395558Y-76388580D01*
X151461629Y-76414563D01*
X151488867Y-76443713D01*
X151580804Y-76580272D01*
X151741532Y-76748758D01*
X151928350Y-76887754D01*
X151933102Y-76890170D01*
X152130244Y-76990402D01*
X152135916Y-76993286D01*
X152208613Y-77015859D01*
X152353193Y-77060753D01*
X152353199Y-77060754D01*
X152358296Y-77062337D01*
X152482660Y-77078820D01*
X152583848Y-77092232D01*
X152583852Y-77092232D01*
X152589132Y-77092932D01*
X152594462Y-77092732D01*
X152594463Y-77092732D01*
X152705477Y-77088564D01*
X152821822Y-77084197D01*
X152986713Y-77049599D01*
X153044486Y-77037477D01*
X153044489Y-77037476D01*
X153049713Y-77036380D01*
X153266290Y-76950850D01*
X153465359Y-76830051D01*
X153563492Y-76744896D01*
X153637197Y-76680939D01*
X153637199Y-76680937D01*
X153641230Y-76677439D01*
X153644613Y-76673313D01*
X153644617Y-76673309D01*
X153785487Y-76501504D01*
X153788872Y-76497376D01*
X153819696Y-76443227D01*
X153901422Y-76299654D01*
X153904065Y-76295011D01*
X153924239Y-76239435D01*
X153981695Y-76081146D01*
X153981696Y-76081142D01*
X153983515Y-76076131D01*
X154024950Y-75846993D01*
X154026100Y-75822606D01*
X154026100Y-75354132D01*
X154011374Y-75180580D01*
X154010035Y-75175420D01*
X153954217Y-74960363D01*
X153954216Y-74960359D01*
X153952875Y-74955194D01*
X153857238Y-74742887D01*
X153727196Y-74549728D01*
X153566468Y-74381242D01*
X153379650Y-74242246D01*
X153252574Y-74177637D01*
X153176842Y-74139133D01*
X153176841Y-74139133D01*
X153172084Y-74136714D01*
X153033299Y-74093620D01*
X152954807Y-74069247D01*
X152954801Y-74069246D01*
X152949704Y-74067663D01*
X152825340Y-74051180D01*
X152724152Y-74037768D01*
X152724148Y-74037768D01*
X152718868Y-74037068D01*
X152713538Y-74037268D01*
X152713537Y-74037268D01*
X152602523Y-74041436D01*
X152486178Y-74045803D01*
X152403474Y-74063156D01*
X152263514Y-74092523D01*
X152263511Y-74092524D01*
X152258287Y-74093620D01*
X152041710Y-74179150D01*
X151842641Y-74299949D01*
X151838611Y-74303446D01*
X151744075Y-74385480D01*
X151666770Y-74452561D01*
X151663387Y-74456687D01*
X151663383Y-74456691D01*
X151590262Y-74545869D01*
X151519128Y-74632624D01*
X151516490Y-74637259D01*
X151516487Y-74637263D01*
X151493155Y-74678252D01*
X151442073Y-74727558D01*
X151372442Y-74741420D01*
X151306371Y-74715437D01*
X151279133Y-74686287D01*
X151190176Y-74554155D01*
X151187196Y-74549728D01*
X151026468Y-74381242D01*
X150839650Y-74242246D01*
X150712574Y-74177637D01*
X150636842Y-74139133D01*
X150636841Y-74139133D01*
X150632084Y-74136714D01*
X150493299Y-74093620D01*
X150414807Y-74069247D01*
X150414801Y-74069246D01*
X150409704Y-74067663D01*
X150285340Y-74051180D01*
X150184152Y-74037768D01*
X150184148Y-74037768D01*
X150178868Y-74037068D01*
X150173538Y-74037268D01*
X150173537Y-74037268D01*
X150062523Y-74041436D01*
X149946178Y-74045803D01*
X149863474Y-74063156D01*
X149723514Y-74092523D01*
X149723511Y-74092524D01*
X149718287Y-74093620D01*
X149501710Y-74179150D01*
X149302641Y-74299949D01*
X149298611Y-74303446D01*
X149204075Y-74385480D01*
X149126770Y-74452561D01*
X149123387Y-74456687D01*
X149123383Y-74456691D01*
X149050262Y-74545869D01*
X148979128Y-74632624D01*
X148976490Y-74637259D01*
X148976487Y-74637263D01*
X148953155Y-74678252D01*
X148902073Y-74727558D01*
X148832442Y-74741420D01*
X148766371Y-74715437D01*
X148739133Y-74686287D01*
X148650176Y-74554155D01*
X148647196Y-74549728D01*
X148486468Y-74381242D01*
X148299650Y-74242246D01*
X148172574Y-74177637D01*
X148096842Y-74139133D01*
X148096841Y-74139133D01*
X148092084Y-74136714D01*
X147953299Y-74093620D01*
X147874807Y-74069247D01*
X147874801Y-74069246D01*
X147869704Y-74067663D01*
X147745340Y-74051180D01*
X147644152Y-74037768D01*
X147644148Y-74037768D01*
X147638868Y-74037068D01*
X147633538Y-74037268D01*
X147633537Y-74037268D01*
X147522523Y-74041436D01*
X147406178Y-74045803D01*
X147323474Y-74063156D01*
X147183514Y-74092523D01*
X147183511Y-74092524D01*
X147178287Y-74093620D01*
X146961710Y-74179150D01*
X146762641Y-74299949D01*
X146758611Y-74303446D01*
X146664075Y-74385480D01*
X146586770Y-74452561D01*
X146583387Y-74456687D01*
X146583383Y-74456691D01*
X146510262Y-74545869D01*
X146439128Y-74632624D01*
X146436490Y-74637259D01*
X146436487Y-74637263D01*
X146413155Y-74678252D01*
X146362073Y-74727558D01*
X146292442Y-74741420D01*
X146226371Y-74715437D01*
X146199133Y-74686287D01*
X146110176Y-74554155D01*
X146107196Y-74549728D01*
X145946468Y-74381242D01*
X145759650Y-74242246D01*
X145632574Y-74177637D01*
X145556842Y-74139133D01*
X145556841Y-74139133D01*
X145552084Y-74136714D01*
X145413299Y-74093620D01*
X145334807Y-74069247D01*
X145334801Y-74069246D01*
X145329704Y-74067663D01*
X145205340Y-74051180D01*
X145104152Y-74037768D01*
X145104148Y-74037768D01*
X145098868Y-74037068D01*
X145093538Y-74037268D01*
X145093537Y-74037268D01*
X144982523Y-74041436D01*
X144866178Y-74045803D01*
X144783474Y-74063156D01*
X144643514Y-74092523D01*
X144643511Y-74092524D01*
X144638287Y-74093620D01*
X144421710Y-74179150D01*
X144222641Y-74299949D01*
X144218611Y-74303446D01*
X144124075Y-74385480D01*
X144046770Y-74452561D01*
X144043387Y-74456687D01*
X144043383Y-74456691D01*
X143970262Y-74545869D01*
X143899128Y-74632624D01*
X143896490Y-74637259D01*
X143896487Y-74637263D01*
X143873155Y-74678252D01*
X143822073Y-74727558D01*
X143752442Y-74741420D01*
X143686371Y-74715437D01*
X143659133Y-74686287D01*
X143570176Y-74554155D01*
X143567196Y-74549728D01*
X143406468Y-74381242D01*
X143219650Y-74242246D01*
X143092574Y-74177637D01*
X143016842Y-74139133D01*
X143016841Y-74139133D01*
X143012084Y-74136714D01*
X142873299Y-74093620D01*
X142794807Y-74069247D01*
X142794801Y-74069246D01*
X142789704Y-74067663D01*
X142665340Y-74051180D01*
X142564152Y-74037768D01*
X142564148Y-74037768D01*
X142558868Y-74037068D01*
X142553538Y-74037268D01*
X142553537Y-74037268D01*
X142442523Y-74041436D01*
X142326178Y-74045803D01*
X142243474Y-74063156D01*
X142103514Y-74092523D01*
X142103511Y-74092524D01*
X142098287Y-74093620D01*
X141881710Y-74179150D01*
X141682641Y-74299949D01*
X141678611Y-74303446D01*
X141584075Y-74385480D01*
X141506770Y-74452561D01*
X141503387Y-74456687D01*
X141503383Y-74456691D01*
X141430262Y-74545869D01*
X141359128Y-74632624D01*
X141356490Y-74637259D01*
X141356487Y-74637263D01*
X141333155Y-74678252D01*
X141282073Y-74727558D01*
X141212442Y-74741420D01*
X141146371Y-74715437D01*
X141119133Y-74686287D01*
X141030176Y-74554155D01*
X141027196Y-74549728D01*
X140866468Y-74381242D01*
X140679650Y-74242246D01*
X140552574Y-74177637D01*
X140476842Y-74139133D01*
X140476841Y-74139133D01*
X140472084Y-74136714D01*
X140333299Y-74093620D01*
X140254807Y-74069247D01*
X140254801Y-74069246D01*
X140249704Y-74067663D01*
X140125340Y-74051180D01*
X140024152Y-74037768D01*
X140024148Y-74037768D01*
X140018868Y-74037068D01*
X140013538Y-74037268D01*
X140013537Y-74037268D01*
X139902523Y-74041436D01*
X139786178Y-74045803D01*
X139703474Y-74063156D01*
X139563514Y-74092523D01*
X139563511Y-74092524D01*
X139558287Y-74093620D01*
X139341710Y-74179150D01*
X139142641Y-74299949D01*
X139138611Y-74303446D01*
X139044075Y-74385480D01*
X138966770Y-74452561D01*
X138963387Y-74456687D01*
X138963383Y-74456691D01*
X138890262Y-74545869D01*
X138819128Y-74632624D01*
X138792878Y-74678739D01*
X138741798Y-74728044D01*
X138672168Y-74741906D01*
X138606096Y-74715923D01*
X138578857Y-74686773D01*
X138489785Y-74554470D01*
X138483124Y-74546184D01*
X138329820Y-74385480D01*
X138321852Y-74378431D01*
X138143664Y-74245856D01*
X138134634Y-74240257D01*
X137936653Y-74139598D01*
X137926792Y-74135595D01*
X137714699Y-74069737D01*
X137704304Y-74067452D01*
X137685959Y-74065020D01*
X137671792Y-74067217D01*
X137668000Y-74080401D01*
X137668000Y-77047488D01*
X137160000Y-77047488D01*
X137160000Y-74082512D01*
X137156027Y-74068981D01*
X137145420Y-74067456D01*
X137023657Y-74093004D01*
X137013461Y-74096064D01*
X136806903Y-74177637D01*
X136797366Y-74182371D01*
X136607497Y-74297586D01*
X136598907Y-74303850D01*
X136431163Y-74449411D01*
X136423743Y-74457041D01*
X136282927Y-74628780D01*
X136276898Y-74637551D01*
X136253467Y-74678715D01*
X136202385Y-74728022D01*
X136132755Y-74741884D01*
X136066684Y-74715901D01*
X136039445Y-74686751D01*
X136000417Y-74628780D01*
X135947196Y-74549728D01*
X135786468Y-74381242D01*
X135599650Y-74242246D01*
X135472574Y-74177637D01*
X135396842Y-74139133D01*
X135396841Y-74139133D01*
X135392084Y-74136714D01*
X135253299Y-74093620D01*
X135174807Y-74069247D01*
X135174801Y-74069246D01*
X135169704Y-74067663D01*
X135045340Y-74051180D01*
X134944152Y-74037768D01*
X134944148Y-74037768D01*
X134938868Y-74037068D01*
X134933538Y-74037268D01*
X134933537Y-74037268D01*
X134822523Y-74041436D01*
X134706178Y-74045803D01*
X134623474Y-74063156D01*
X134483514Y-74092523D01*
X134483511Y-74092524D01*
X134478287Y-74093620D01*
X134261710Y-74179150D01*
X134062641Y-74299949D01*
X134058611Y-74303446D01*
X133964075Y-74385480D01*
X133886770Y-74452561D01*
X133883387Y-74456687D01*
X133883383Y-74456691D01*
X133810262Y-74545869D01*
X133739128Y-74632624D01*
X133736490Y-74637259D01*
X133736487Y-74637263D01*
X133713155Y-74678252D01*
X133662073Y-74727558D01*
X133592442Y-74741420D01*
X133526371Y-74715437D01*
X133499133Y-74686287D01*
X133410176Y-74554155D01*
X133407196Y-74549728D01*
X133246468Y-74381242D01*
X133059650Y-74242246D01*
X132932574Y-74177637D01*
X132856842Y-74139133D01*
X132856841Y-74139133D01*
X132852084Y-74136714D01*
X132713299Y-74093620D01*
X132634807Y-74069247D01*
X132634801Y-74069246D01*
X132629704Y-74067663D01*
X132505340Y-74051180D01*
X132404152Y-74037768D01*
X132404148Y-74037768D01*
X132398868Y-74037068D01*
X132393538Y-74037268D01*
X132393537Y-74037268D01*
X132282523Y-74041436D01*
X132166178Y-74045803D01*
X132083474Y-74063156D01*
X131943514Y-74092523D01*
X131943511Y-74092524D01*
X131938287Y-74093620D01*
X131721710Y-74179150D01*
X131522641Y-74299949D01*
X131518611Y-74303446D01*
X131424075Y-74385480D01*
X131346770Y-74452561D01*
X131343387Y-74456687D01*
X131343383Y-74456691D01*
X131270262Y-74545869D01*
X131199128Y-74632624D01*
X131196490Y-74637259D01*
X131196487Y-74637263D01*
X131173155Y-74678252D01*
X131122073Y-74727558D01*
X131052442Y-74741420D01*
X130986371Y-74715437D01*
X130959133Y-74686287D01*
X130870176Y-74554155D01*
X130867196Y-74549728D01*
X130706468Y-74381242D01*
X130519650Y-74242246D01*
X130392574Y-74177637D01*
X130316842Y-74139133D01*
X130316841Y-74139133D01*
X130312084Y-74136714D01*
X130173299Y-74093620D01*
X130094807Y-74069247D01*
X130094801Y-74069246D01*
X130089704Y-74067663D01*
X129965340Y-74051180D01*
X129864152Y-74037768D01*
X129864148Y-74037768D01*
X129858868Y-74037068D01*
X129853538Y-74037268D01*
X129853537Y-74037268D01*
X129742523Y-74041436D01*
X129626178Y-74045803D01*
X129543474Y-74063156D01*
X129403514Y-74092523D01*
X129403511Y-74092524D01*
X129398287Y-74093620D01*
X129181710Y-74179150D01*
X128982641Y-74299949D01*
X128978611Y-74303446D01*
X128884075Y-74385480D01*
X128806770Y-74452561D01*
X128803387Y-74456687D01*
X128803383Y-74456691D01*
X128730262Y-74545869D01*
X128659128Y-74632624D01*
X128656490Y-74637259D01*
X128656487Y-74637263D01*
X128593589Y-74747760D01*
X128543935Y-74834989D01*
X128542114Y-74840005D01*
X128542112Y-74840010D01*
X128500302Y-74955194D01*
X128464485Y-75053869D01*
X128423050Y-75283007D01*
X128421900Y-75307394D01*
X128421900Y-75775868D01*
X126746000Y-75775868D01*
X126746000Y-73659000D01*
X126766002Y-73590879D01*
X126819658Y-73544386D01*
X126872000Y-73533000D01*
X176404000Y-73533000D01*
X176472121Y-73553002D01*
G37*
%TD.AperFunction*%
%TD*%
M02*
